<svg preserveAspectRatio="none" width="100%" height="100%" overflow="visible" style="display: block;" viewBox="0 0 136 30" fill="none" xmlns="http://www.w3.org/2000/svg">
<g id="svg557039234_3470" clip-path="url(#clip0_1973_28531)">
<path id="Vector" fill-rule="evenodd" clip-rule="evenodd" d="M43.1668 1.99517C43.1668 0.97894 43.9997 0.155724 45.027 0.155724H48.2661C48.9973 0.155724 49.7058 0.40649 50.271 0.864888L51.2559 1.66398L51.2808 1.68591L51.3495 1.66398C53.127 1.10103 55.284 0.993562 57.4863 0.993562C59.6872 0.993562 61.8442 1.10103 63.6224 1.66398L63.6911 1.68591L63.716 1.66398L64.7009 0.864888C65.2681 0.405648 65.976 0.155276 66.7058 0.155724H69.945C70.9723 0.155724 71.8051 0.97894 71.8051 1.99517V3.13202C71.8051 4.01153 71.43 4.8501 70.7726 5.44302L69.9779 6.1595C69.5887 6.51001 69.123 6.76463 68.6179 6.90302L68.4299 6.9542C69.1662 8.69275 69.5735 10.5512 69.5735 12.0543C69.5735 18.1012 65.7904 20.7135 62.4569 23.0142C59.832 24.8273 57.4863 26.446 57.4863 29.3996C57.4863 26.446 55.1392 24.8266 52.5143 23.0142C49.1815 20.7135 45.3984 18.1012 45.3984 12.0543C45.3984 10.5512 45.8057 8.69275 46.542 6.9542L46.3541 6.90302C45.8489 6.76463 45.3832 6.51001 44.9941 6.1595L44.1993 5.44302C43.8748 5.15165 43.6153 4.79535 43.4374 4.39723C43.2596 3.99911 43.1674 3.56806 43.1668 3.13202V1.99517ZM59.9036 16.998C59.9036 17.2868 59.7764 17.5639 59.5497 17.7686C59.3231 17.9733 59.016 18.0874 58.6942 18.0874C58.423 18.0885 58.1583 18.0043 57.9375 17.8468C58.3009 18.8097 59.2317 19.7221 60.6472 18.2548C61.8976 16.892 60.5917 14.0166 59.3201 12.3102C58.896 11.7414 58.2 11.468 57.4863 11.468C56.772 11.468 56.0751 11.7414 55.6518 12.3102C54.3795 14.0166 53.0751 16.892 54.3247 18.2548C55.7403 19.7221 56.6711 18.8104 57.0345 17.8468C56.8135 18.0047 56.5485 18.0891 56.277 18.0881C55.9624 18.0902 55.6582 17.9765 55.4222 17.7686C55.3123 17.6723 55.224 17.5539 55.163 17.4211C55.102 17.2883 55.0697 17.1441 55.0683 16.998H59.9036ZM52.8572 8.48658H49.4894L52.1436 10.5885C52.7278 11.0505 53.5811 10.9029 53.9423 10.277C54.3985 9.48599 53.7924 8.48658 52.8572 8.48658ZM62.1147 8.48658H65.4825L62.8283 10.5885C62.2441 11.0505 61.3908 10.9029 61.0296 10.277C60.5734 9.48599 61.1795 8.48658 62.1147 8.48658Z" fill="var(--fill-0, #72B800)"/>
<path id="Vector_2" d="M75.8163 20.8699H78.7996V9.61832H75.8163V20.8699ZM75.8163 7.86369H78.7996V5.18787H75.8163V7.86369ZM80.7219 24.5546H83.7051V19.5978H83.749C84.3851 20.5629 85.416 21.1989 86.9954 21.1989C89.8909 21.1989 91.8651 18.8959 91.8651 15.2551C91.8651 11.7458 89.9567 9.31126 86.9735 9.31126C85.438 9.31126 84.3851 10.035 83.6612 11.022H83.5954V9.61832H80.7219V24.5546ZM86.3593 18.7205C84.5825 18.7205 83.6393 17.3826 83.6393 15.3428C83.6393 13.325 84.3851 11.7239 86.2496 11.7239C88.0922 11.7239 88.838 13.2153 88.838 15.3428C88.838 17.4703 87.8728 18.7205 86.3593 18.7205ZM97.8162 21.1989C100.624 21.1989 102.554 19.8391 102.554 17.58C102.554 14.948 100.47 14.4216 98.5839 14.0268C96.9826 13.6978 95.491 13.6101 95.491 12.6451C95.491 11.8335 96.2588 11.3949 97.4213 11.3949C98.6936 11.3949 99.4613 11.8335 99.5929 13.0399H102.291C102.072 10.7808 100.426 9.31126 97.4652 9.31126C94.8988 9.31126 92.8807 10.4737 92.8807 12.9083C92.8807 15.3647 94.8549 15.9131 96.8729 16.3079C98.4084 16.6149 99.8342 16.7246 99.8342 17.7993C99.8342 18.5889 99.0884 19.0933 97.7723 19.0933C96.4342 19.0933 95.5129 18.5231 95.3155 17.229H92.5517C92.7271 19.6197 94.5478 21.1989 97.8162 21.1989ZM113.881 20.8699V9.61832H110.898V16.1105C110.898 17.6019 110.042 18.6547 108.638 18.6547C107.366 18.6547 106.774 17.9309 106.774 16.6149V9.61832H103.813V17.1194C103.813 19.5759 105.216 21.177 107.717 21.177C109.296 21.177 110.174 20.5848 110.942 19.5539H111.007V20.8699H113.881ZM115.811 20.8699H118.794V14.3339C118.794 12.8425 119.605 11.8774 120.812 11.8774C121.909 11.8774 122.545 12.5354 122.545 13.8075V20.8699H125.528V14.3339C125.528 12.8425 126.296 11.8774 127.546 11.8774C128.643 11.8774 129.279 12.5354 129.279 13.8075V20.8699H132.262V13.3031C132.262 10.8466 130.924 9.31126 128.555 9.31126C127.129 9.31126 125.945 10.057 125.177 11.2852H125.133C124.585 10.1008 123.444 9.31126 122.018 9.31126C120.461 9.31126 119.364 10.1008 118.75 11.1317H118.684V9.61832H115.811V20.8699ZM0.500129 20.8699H3.48335V5.18787H0.500129V20.8699ZM10.7776 21.1989C14.2654 21.1989 16.6563 18.6108 16.6563 15.2551C16.6563 11.8993 14.2654 9.31126 10.7776 9.31126C7.28989 9.31126 4.89892 11.8993 4.89892 15.2551C4.89892 18.6108 7.28989 21.1989 10.7776 21.1989ZM10.7776 18.9179C8.93505 18.9179 7.92602 17.4484 7.92602 15.2551C7.92602 13.0618 8.93505 11.5704 10.7776 11.5704C12.5983 11.5704 13.6292 13.0618 13.6292 15.2551C13.6292 17.4484 12.5983 18.9179 10.7776 18.9179ZM23.0008 24.7082C24.6679 24.7082 26.1157 24.3134 27.0589 23.4361C27.8924 22.6684 28.3969 21.5937 28.3969 20.0145V9.61832H25.5234V10.8027H25.4795C24.7995 9.85958 23.7686 9.31126 22.3647 9.31126C19.5131 9.31126 17.495 11.4607 17.495 14.8164C17.495 18.216 19.9518 20.19 22.4524 20.19C23.8782 20.19 24.7337 19.6197 25.3918 18.874H25.4576V20.1023C25.4576 21.6376 24.646 22.4491 22.9569 22.4491C21.575 22.4491 20.9389 21.9008 20.6976 21.1989H17.7363C18.0434 23.3922 19.9299 24.7082 23.0008 24.7082ZM22.9569 17.7993C21.4215 17.7993 20.4124 16.6807 20.4124 14.7726C20.4124 12.8863 21.4215 11.7019 22.935 11.7019C24.7337 11.7019 25.6111 13.1057 25.6111 14.7506C25.6111 16.4175 24.8434 17.7993 22.9569 17.7993ZM35.6481 21.1989C39.1358 21.1989 41.5268 18.6108 41.5268 15.2551C41.5268 11.8993 39.1358 9.31126 35.6481 9.31126C32.1603 9.31126 29.7694 11.8993 29.7694 15.2551C29.7694 18.6108 32.1603 21.1989 35.6481 21.1989ZM35.6481 18.9179C33.8055 18.9179 32.7965 17.4484 32.7965 15.2551C32.7965 13.0618 33.8055 11.5704 35.6481 11.5704C37.4687 11.5704 38.4997 13.0618 38.4997 15.2551C38.4997 17.4484 37.4687 18.9179 35.6481 18.9179ZM132.128 7.16183C132.128 6.65737 132.536 6.24796 133.042 6.24796H134.87C135.112 6.24796 135.344 6.34424 135.516 6.51563C135.687 6.68701 135.784 6.91946 135.784 7.16183C135.784 7.40421 135.687 7.63665 135.516 7.80804C135.344 7.97942 135.112 8.0757 134.87 8.0757H133.042C132.799 8.0757 132.567 7.97942 132.395 7.80804C132.224 7.63665 132.128 7.40421 132.128 7.16183Z" fill="var(--fill-0, #355030)"/>
</g>
<defs>
<clipPath id="clip0_1973_28531">
<rect width="136" height="29.975" fill="white"/>
</clipPath>
</defs>
</svg>
