<svg preserveAspectRatio="none" width="100%" height="100%" overflow="visible" style="display: block;" viewBox="0 0 22 22" fill="none" xmlns="http://www.w3.org/2000/svg">
<g id="svg1107307852_358">
<path id="Vector" d="M20.1343 9.86992L16.2671 13.2069L17.4453 18.1973C17.5103 18.4682 17.4936 18.7523 17.3972 19.0137C17.3008 19.2751 17.1292 19.502 16.9039 19.6659C16.6785 19.8298 16.4097 19.9232 16.1314 19.9344C15.853 19.9455 15.5776 19.874 15.3398 19.7287L11 17.0577L6.65758 19.7287C6.4199 19.8731 6.14479 19.944 5.8669 19.9324C5.58901 19.9209 5.32076 19.8273 5.09592 19.6636C4.87109 19.4998 4.69973 19.2732 4.60342 19.0123C4.50711 18.7514 4.49015 18.4678 4.55469 18.1973L5.73719 13.2069L1.87 9.86992C1.65971 9.68817 1.50762 9.4485 1.43273 9.18083C1.35785 8.91316 1.36348 8.62936 1.44892 8.36487C1.53436 8.10038 1.69583 7.86693 1.91317 7.69366C2.1305 7.52039 2.39406 7.41499 2.67094 7.39063L7.74125 6.98156L9.69719 2.24813C9.80306 1.99016 9.98325 1.76949 10.2148 1.6142C10.4465 1.4589 10.719 1.37598 10.9979 1.37598C11.2767 1.37598 11.5493 1.4589 11.7809 1.6142C12.0125 1.76949 12.1926 1.99016 12.2985 2.24813L14.2536 6.98156L19.3239 7.39063C19.6013 7.41409 19.8657 7.5189 20.0838 7.69193C20.3019 7.86495 20.4641 8.0985 20.5501 8.36331C20.6361 8.62812 20.642 8.91242 20.5671 9.18057C20.4922 9.44873 20.3399 9.68883 20.1291 9.87078L20.1343 9.86992Z" fill="var(--fill-0, #D4A217)"/>
</g>
</svg>
