<svg preserveAspectRatio="none" width="100%" height="100%" overflow="visible" style="display: block;" viewBox="0 0 98 31" fill="none" xmlns="http://www.w3.org/2000/svg">
<g id="svg-601742926_3080">
<path id="Vector" d="M15.0472 1.54295C12.3767 1.54343 9.76618 2.33552 7.54582 3.81907C5.32545 5.30263 3.59489 7.41104 2.57292 9.87777C1.55095 12.3445 1.28345 15.0588 1.80424 17.6775C2.32504 20.2962 3.61074 22.7017 5.4988 24.59C8.03126 27.1218 11.4659 28.5442 15.0472 28.5446V21.7942C13.4846 21.7952 11.97 21.2542 10.7617 20.2635C9.55344 19.2728 8.72632 17.8938 8.42142 16.3615C8.11652 14.8292 8.35271 13.2387 9.08973 11.8611C9.82674 10.4835 11.0189 9.40416 12.463 8.80715C13.2823 8.46786 14.1604 8.29326 15.0472 8.29335V1.54295Z" fill="var(--fill-0, #0F52FF)"/>
<path id="Vector_2" d="M15.0472 19.5438C16.241 19.5438 17.3859 19.0697 18.23 18.2257C19.0741 17.3818 19.5483 16.2372 19.5483 15.0438C19.5483 13.8503 19.0741 12.7057 18.23 11.8618C17.3859 11.0178 16.241 10.5437 15.0472 10.5437C13.8535 10.5437 12.7086 11.0178 11.8645 11.8618C11.0204 12.7057 10.5462 13.8503 10.5462 15.0438C10.5462 16.2372 11.0204 17.3818 11.8645 18.2257C12.7086 19.0697 13.8535 19.5438 15.0472 19.5438Z" fill="var(--fill-0, #0F52FF)"/>
<path id="Vector_3" d="M1.54331 15.0437C1.54379 17.7137 2.33606 20.3236 3.81996 22.5434C5.30386 24.7633 7.41276 26.4934 9.88006 27.5152C12.3474 28.5369 15.0623 28.8043 17.6816 28.2837C20.3009 27.763 22.707 26.4776 24.5957 24.59C27.1281 22.0581 28.5509 18.6243 28.5512 15.0437H21.7992C21.8002 16.606 21.2591 18.1203 20.2682 19.3283C19.2773 20.5363 17.8979 21.3632 16.3653 21.668C14.8327 21.9729 13.2418 21.7367 11.8639 20.9999C10.4859 20.263 9.40634 19.0711 8.8092 17.6274C8.46982 16.8083 8.29519 15.9304 8.29528 15.0437H1.54331ZM19.5483 15.0437C19.5265 13.8647 19.0426 12.7413 18.2009 11.9152C17.3592 11.0891 16.2268 10.6263 15.0472 10.6263C13.8677 10.6263 12.7353 11.0891 11.8936 11.9152C11.0518 12.7413 10.568 13.8647 10.5462 15.0437H19.5483Z" fill="var(--fill-0, #5BD0F4)"/>
<path id="Vector_4" d="M35.6041 9.97131H33.9265V19.2869H35.6041V9.97131ZM36.6991 15.9865C36.6991 18.142 38.1899 19.4736 40.1599 19.4736C42.13 19.4736 43.6208 18.142 43.6208 15.9865C43.6208 13.8302 42.13 12.4994 40.1599 12.4994C38.1899 12.4994 36.6991 13.8302 36.6991 15.9865ZM38.3759 15.9865C38.3759 14.7089 39.1213 13.9637 40.1599 13.9637C41.1978 13.9637 41.9432 14.7089 41.9432 15.9865C41.9432 17.2641 41.1978 18.0093 40.1599 18.0093C39.1213 18.0093 38.3759 17.2641 38.3759 15.9865ZM49.6142 12.6861V13.5779H49.4815C49.0818 13.0055 48.4429 12.4994 47.2977 12.4994C45.7274 12.4994 44.3168 13.8302 44.3168 15.88C44.3168 17.9298 45.7274 19.2599 47.2985 19.2599C48.4429 19.2599 49.0818 18.7414 49.4545 18.2222H49.5872V18.861C49.5872 20.1386 48.8426 20.7241 47.7507 20.7241C46.6596 20.7241 46.1001 20.1386 45.874 19.3802L44.3693 20.0321C44.7158 21.0304 45.7274 22.1351 47.7769 22.1351C49.8805 22.1351 51.2648 21.0304 51.2648 18.9011V12.6861H49.6142ZM47.8039 17.8234C46.7653 17.8234 45.9936 17.0781 45.9936 15.88C45.9936 14.6827 46.7653 13.9375 47.8039 13.9375C48.8418 13.9375 49.6142 14.6827 49.6142 15.88C49.6142 17.0781 48.8426 17.8226 47.8039 17.8226V17.8234ZM52.3497 15.9865C52.3497 18.142 53.8406 19.4736 55.8106 19.4736C57.7806 19.4736 59.2715 18.142 59.2715 15.9865C59.2715 13.8302 57.7806 12.4994 55.8106 12.4994C53.8406 12.4994 52.3497 13.8302 52.3497 15.9865ZM54.0273 15.9865C54.0273 14.7089 54.7727 13.9637 55.8106 13.9637C56.8493 13.9637 57.5947 14.7089 57.5947 15.9865C57.5947 17.2641 56.8493 18.0093 55.8106 18.0093C54.7727 18.0093 54.0273 17.2641 54.0273 15.9865Z" fill="var(--fill-0, #0F52FF)"/>
<path id="Vector_5" d="M60.5879 10.7698C60.5879 11.4487 61.1072 11.9139 61.7732 11.9139C62.4383 11.9139 62.9577 11.4487 62.9577 10.7698C62.9577 10.0909 62.4383 9.62491 61.7732 9.62491C61.1072 9.62491 60.5879 10.0909 60.5879 10.7698ZM62.6112 12.6861H60.9344V19.2869H62.6112V12.6861ZM64.1059 21.9484H65.7835V18.4352H65.9162C66.2889 18.9675 66.9278 19.4728 68.073 19.4728C69.6433 19.4728 71.0546 18.1428 71.0546 15.9865C71.0546 13.8302 69.6433 12.4994 68.073 12.4994C66.9278 12.4994 66.2889 13.0055 65.89 13.5779H65.7565V12.6861H64.1059V21.9484ZM67.5668 18.0355C66.5289 18.0355 65.7565 17.2911 65.7565 15.9865C65.7565 14.6827 66.5289 13.9367 67.5668 13.9367C68.6054 13.9367 69.3771 14.6819 69.3771 15.9865C69.3771 17.2903 68.6054 18.0355 67.5668 18.0355ZM72.0331 14.5361C72.0331 15.8399 73.1242 16.319 74.5086 16.5852L74.855 16.6515C75.6799 16.8112 76.0526 17.011 76.0526 17.4369C76.0526 17.8627 75.6799 18.1952 74.9083 18.1952C74.1358 18.1952 73.5108 17.8766 73.3372 16.9184L71.7931 17.3173C72.02 18.7013 73.1774 19.4728 74.9083 19.4728C76.5851 19.4728 77.677 18.6882 77.677 17.3042C77.677 15.9201 76.5588 15.5475 75.068 15.2544L74.7215 15.188C74.0294 15.0553 73.6566 14.8686 73.6566 14.4297C73.6566 14.03 74.0031 13.777 74.6421 13.777C75.281 13.777 75.7332 14.0431 75.8929 14.7622L77.4107 14.2962C77.0913 13.2316 76.1198 12.5002 74.6421 12.5002C73.071 12.5002 72.0331 13.2316 72.0331 14.5361ZM85.2106 19.2869V12.6861H83.5338V16.093C83.5338 17.3173 82.935 18.0355 81.9095 18.0355C81.0043 18.0355 80.4989 17.5433 80.4989 16.5458V12.6861H78.8213V16.6253C78.8213 18.2623 79.8468 19.3933 81.3909 19.3933C82.6017 19.3933 83.1611 18.861 83.4273 18.3017H83.5601V19.2869H85.2106ZM86.6984 12.6861V19.2869H88.3759V15.3477C88.3759 14.4428 88.8019 13.9375 89.5735 13.9375C90.2395 13.9375 90.6384 14.3101 90.6384 15.0283V19.2869H92.316V15.3477C92.316 14.4428 92.742 13.9375 93.5136 13.9375C94.1795 13.9375 94.5785 14.3101 94.5785 15.0283V19.2869H96.2561V14.9489C96.2561 13.3519 95.2707 12.5797 94.046 12.5797C92.968 12.5797 92.4757 13.0587 92.1563 13.6173H92.0228C91.7164 12.9924 91.1709 12.5797 90.2125 12.5797C89.2541 12.5797 88.7348 13.0055 88.4824 13.5108H88.3489V12.6861H86.6984Z" fill="var(--fill-0, #5BD0F4)"/>
</g>
</svg>
