<svg preserveAspectRatio="none" width="100%" height="100%" overflow="visible" style="display: block;" viewBox="0 0 45 45" fill="none" xmlns="http://www.w3.org/2000/svg">
<path id="Vector" d="M22.0408 11.0204C22.0408 17.1066 17.1066 22.0408 11.0204 22.0408H0V11.0204C0 4.9342 4.9342 0 11.0204 0C17.1066 0 22.0408 4.9342 22.0408 11.0204ZM22.0408 33.0612C22.0408 26.975 26.975 22.0408 33.0612 22.0408H44.0816V33.0612C44.0816 39.1474 39.1474 44.0816 33.0612 44.0816C26.975 44.0816 22.0408 39.1474 22.0408 33.0612ZM0 33.0612C0 39.1474 4.9342 44.0816 11.0204 44.0816H22.0408V33.0612C22.0408 26.975 17.1066 22.0408 11.0204 22.0408C4.9342 22.0408 0 26.975 0 33.0612ZM44.0816 11.0204C44.0816 4.9342 39.1474 0 33.0612 0H22.0408V11.0204C22.0408 17.1066 26.975 22.0408 33.0612 22.0408C39.1474 22.0408 44.0816 17.1066 44.0816 11.0204Z" fill="var(--fill-0, #17CF97)"/>
</svg>
