<svg preserveAspectRatio="none" width="100%" height="100%" overflow="visible" style="display: block;" viewBox="0 0 16 16" fill="none" xmlns="http://www.w3.org/2000/svg">
<g id="svg-496908741_405">
<path id="Vector" opacity="0.2" d="M14 8C14 9.18669 13.6481 10.3467 12.9888 11.3334C12.3295 12.3201 11.3925 13.0892 10.2961 13.5433C9.19974 13.9974 7.99334 14.1162 6.82946 13.8847C5.66557 13.6532 4.59647 13.0818 3.75736 12.2426C2.91824 11.4035 2.3468 10.3344 2.11529 9.17054C1.88378 8.00666 2.0026 6.80026 2.45672 5.7039C2.91085 4.60754 3.67988 3.67047 4.66658 3.01118C5.65327 2.35189 6.81331 2 8 2C9.5913 2 11.1174 2.63214 12.2426 3.75736C13.3679 4.88258 14 6.4087 14 8Z" fill="var(--fill-0, #F347FF)"/>
<path id="Vector_2" d="M10.8538 6.14625C10.9002 6.19269 10.9371 6.24783 10.9623 6.30853C10.9874 6.36923 11.0004 6.43429 11.0004 6.5C11.0004 6.56571 10.9874 6.63077 10.9623 6.69147C10.9371 6.75217 10.9002 6.80731 10.8538 6.85375L7.35375 10.3538C7.30731 10.4002 7.25217 10.4371 7.19147 10.4623C7.13077 10.4874 7.06571 10.5004 7 10.5004C6.93429 10.5004 6.86923 10.4874 6.80853 10.4623C6.74783 10.4371 6.69269 10.4002 6.64625 10.3538L5.14625 8.85375C5.05243 8.75993 4.99972 8.63268 4.99972 8.5C4.99972 8.36732 5.05243 8.24007 5.14625 8.14625C5.24007 8.05243 5.36732 7.99972 5.5 7.99972C5.63268 7.99972 5.75993 8.05243 5.85375 8.14625L7 9.29313L10.1462 6.14625C10.1927 6.09976 10.2478 6.06288 10.3085 6.03772C10.3692 6.01256 10.4343 5.99961 10.5 5.99961C10.5657 5.99961 10.6308 6.01256 10.6915 6.03772C10.7522 6.06288 10.8073 6.09976 10.8538 6.14625ZM14.5 8C14.5 9.28558 14.1188 10.5423 13.4046 11.6112C12.6903 12.6801 11.6752 13.5132 10.4874 14.0052C9.29972 14.4972 7.99279 14.6259 6.73191 14.3751C5.47104 14.1243 4.31285 13.5052 3.40381 12.5962C2.49476 11.6872 1.8757 10.529 1.6249 9.26809C1.37409 8.00721 1.50281 6.70028 1.99478 5.51256C2.48675 4.32484 3.31987 3.30968 4.38879 2.59545C5.45771 1.88122 6.71442 1.5 8 1.5C9.72335 1.50182 11.3756 2.18722 12.5942 3.40582C13.8128 4.62441 14.4982 6.27665 14.5 8ZM13.5 8C13.5 6.9122 13.1774 5.84883 12.5731 4.94436C11.9687 4.03989 11.1098 3.33494 10.1048 2.91866C9.09977 2.50238 7.9939 2.39346 6.927 2.60568C5.86011 2.8179 4.8801 3.34172 4.11091 4.11091C3.34172 4.8801 2.8179 5.86011 2.60568 6.927C2.39346 7.9939 2.50238 9.09977 2.91866 10.1048C3.33494 11.1098 4.03989 11.9687 4.94436 12.5731C5.84883 13.1774 6.9122 13.5 8 13.5C9.45818 13.4983 10.8562 12.9184 11.8873 11.8873C12.9184 10.8562 13.4983 9.45818 13.5 8Z" fill="var(--fill-0, #F347FF)"/>
</g>
</svg>
