<svg preserveAspectRatio="none" width="100%" height="100%" overflow="visible" style="display: block;" viewBox="0 0 121 31" fill="none" xmlns="http://www.w3.org/2000/svg">
<g id="svg-1773800531_5537" clip-path="url(#clip0_1973_28577)">
<path id="Vector" d="M0.695157 22.286V7.42868L8.1244 11.5558V18.2L14.0676 21.5427L20.0109 18.2V11.5558L27.4401 7.42789V22.286L14.0668 29.7147L0.695157 22.286Z" fill="var(--fill-0, #192657)"/>
<g id="Vector_2">
</g>
<path id="Vector_3" d="M34.5601 21.1117V8.63147H36.9137V18.9718H42.6197V21.1117H34.5601ZM47.7009 21.3616C46.8215 21.3616 46.0306 21.1829 45.3291 20.8262C44.6388 20.4797 44.0632 19.9412 43.6715 19.2755C43.2674 18.5978 43.0649 17.7833 43.0649 16.8327V16.5481C43.0649 15.5967 43.2674 14.7822 43.6715 14.1045C44.0633 13.4391 44.6389 12.9009 45.3291 12.5546C46.0306 12.1971 46.8215 12.0192 47.7009 12.0192C48.5803 12.0192 49.3712 12.1971 50.0719 12.5538C50.7626 12.9004 51.3385 13.4392 51.7303 14.1053C52.1344 14.7822 52.3369 15.5967 52.3369 16.5473V16.8327C52.3369 17.7833 52.1344 18.5978 51.7303 19.2755C51.3386 19.9412 50.763 20.4797 50.0726 20.8262C49.3712 21.1829 48.5803 21.3616 47.7001 21.3616H47.7009ZM47.7009 19.3641C48.3905 19.3641 48.9607 19.145 49.4123 18.7045C49.8647 18.2538 50.09 17.6109 50.09 16.779V16.601C50.09 15.7691 49.8639 15.1333 49.4123 14.6937C48.9726 14.2413 48.4024 14.016 47.7009 14.016C47.0113 14.016 46.4411 14.2413 45.9895 14.6937C45.5371 15.1333 45.3117 15.7691 45.3117 16.601V16.779C45.3117 17.6109 45.5371 18.253 45.9895 18.7045C46.4403 19.1442 47.0113 19.3649 47.7009 19.3649V19.3641ZM53.1799 16.7252V16.4405C53.1799 15.5137 53.3642 14.7229 53.7335 14.0697C54.1012 13.4039 54.5884 12.8986 55.195 12.5538C55.8067 12.1991 56.5022 12.0145 57.2093 12.0192C58.0183 12.0192 58.6304 12.1616 59.0464 12.4462C59.4624 12.7325 59.7661 13.029 59.9559 13.3382H60.2762V12.2683H62.4874V22.6806C62.4874 23.2872 62.3087 23.768 61.9528 24.1246C61.5961 24.4931 61.12 24.6782 60.5261 24.6782H54.6066V22.717H59.7416C60.0737 22.717 60.2406 22.5383 60.2406 22.1816V19.8804H59.9195C59.8009 20.0702 59.6348 20.2671 59.4213 20.4688C59.207 20.6586 58.9215 20.8199 58.5648 20.9512C58.2089 21.0809 57.7565 21.1465 57.2101 21.1465C56.5049 21.1517 55.8105 20.9734 55.195 20.6293C54.5884 20.2735 54.1012 19.7674 53.7327 19.1142C53.3642 18.4483 53.1799 17.652 53.1799 16.7252ZM57.8514 19.1861C58.5411 19.1861 59.1168 18.9663 59.581 18.5266C60.0445 18.0869 60.277 17.4685 60.277 16.6722V16.4943C60.277 15.6861 60.0445 15.0677 59.581 14.6399C59.1295 14.2002 58.5529 13.9804 57.8514 13.9804C57.1618 13.9804 56.5861 14.2002 56.1219 14.6399C55.6584 15.0677 55.4267 15.6861 55.4267 16.4943V16.6722C55.4267 17.4685 55.6584 18.0869 56.1226 18.5266C56.5853 18.9663 57.1618 19.1861 57.8514 19.1861ZM68.384 21.3616C67.5038 21.3616 66.7137 21.1829 66.0122 20.8262C65.3216 20.4798 64.7457 19.9413 64.3538 19.2755C63.9505 18.5978 63.748 17.7833 63.748 16.8327V16.5481C63.748 15.5967 63.9497 14.7822 64.3538 14.1045C64.7458 13.439 65.3217 12.9008 66.0122 12.5546C66.7137 12.1971 67.5038 12.0192 68.384 12.0192C69.2634 12.0192 70.0535 12.1971 70.755 12.5538C71.4457 12.9004 72.0216 13.4392 72.4134 14.1053C72.8175 14.7822 73.0199 15.5967 73.0199 16.5473V16.8327C73.0199 17.7833 72.8175 18.5978 72.4134 19.2755C72.0215 19.9413 71.4456 20.4798 70.755 20.8262C70.0535 21.1829 69.2634 21.3616 68.384 21.3616ZM68.384 19.3641C69.0728 19.3641 69.6438 19.145 70.0954 18.7045C70.547 18.2538 70.7731 17.6109 70.7731 16.779V16.601C70.7731 15.7691 70.547 15.1333 70.0954 14.6937C69.6557 14.2413 69.0855 14.016 68.384 14.016C67.6944 14.016 67.1242 14.2413 66.6718 14.6937C66.221 15.1333 65.9948 15.7691 65.9948 16.601V16.779C65.9948 17.6109 66.2202 18.253 66.6718 18.7045C67.1242 19.1442 67.6944 19.3649 68.384 19.3649V19.3641ZM74.2908 21.1117V12.2683H76.5368V21.1117H74.2908ZM75.4138 11.2347C75.0105 11.2347 74.6649 11.1035 74.3802 10.8425C74.1066 10.5816 73.9698 10.236 73.9698 9.80816C73.9698 9.38114 74.1066 9.03556 74.3802 8.77381C74.6649 8.51285 75.0097 8.38237 75.4138 8.38237C75.8298 8.38237 76.1746 8.51285 76.4483 8.77381C76.7219 9.03556 76.8587 9.38034 76.8587 9.80816C76.8587 10.236 76.7219 10.5808 76.4483 10.8425C76.1746 11.1035 75.8306 11.2347 75.4138 11.2347ZM78.2245 24.6774V12.2683H80.4357V13.3382H80.7568C80.9585 12.9935 81.2732 12.6906 81.7019 12.4288C82.1297 12.156 82.7419 12.0192 83.5382 12.0192C84.2516 12.0192 84.9112 12.1971 85.5169 12.5538C86.1235 12.8986 86.6107 13.4094 86.9792 14.0879C87.3478 14.7648 87.532 15.5849 87.532 16.5473V16.8327C87.532 17.7951 87.3478 18.616 86.9792 19.2929C86.6107 19.9706 86.1235 20.487 85.5169 20.8444C84.9112 21.1892 84.2516 21.3616 83.5382 21.3616C83.0028 21.3616 82.5513 21.296 82.1827 21.1655C81.8261 21.0469 81.535 20.8919 81.3096 20.7013C81.1135 20.5208 80.9399 20.3175 80.7924 20.0955H80.4713V24.6774H78.2245ZM82.8605 19.4004C83.562 19.4004 84.1385 19.1798 84.5901 18.7401C85.0535 18.2894 85.2852 17.6354 85.2852 16.779V16.601C85.2852 15.7454 85.0535 15.0978 84.5901 14.6581C84.1266 14.2057 83.5501 13.9804 82.8605 13.9804C82.1709 13.9804 81.5943 14.2057 81.1309 14.6581C80.6675 15.0978 80.4357 15.7454 80.4357 16.601V16.779C80.4357 17.6354 80.6675 18.2894 81.1309 18.7401C81.5943 19.1798 82.1709 19.4004 82.8605 19.4004ZM92.4653 21.3616C91.3123 21.3616 90.3672 21.1117 89.6302 20.6127C88.8939 20.1129 88.4478 19.4004 88.2928 18.4728L90.3617 17.9383C90.4447 18.3542 90.5815 18.6816 90.7714 18.9188C90.9738 19.1561 91.2174 19.3285 91.5029 19.436C91.7995 19.5309 92.1205 19.5784 92.4653 19.5784C92.9881 19.5784 93.3748 19.489 93.6247 19.3111C93.8739 19.1213 93.9988 18.8888 93.9988 18.6152C94.0029 18.4885 93.9717 18.3631 93.9087 18.2531C93.8457 18.1431 93.7534 18.0527 93.6421 17.992C93.4049 17.837 93.0245 17.7121 92.5009 17.6172L92.0019 17.5278C91.4235 17.4206 90.8564 17.2597 90.3079 17.047C89.797 16.8335 89.3866 16.5409 89.0774 16.1732C88.7689 15.8047 88.6139 15.3295 88.6139 14.7466C88.6139 13.8673 88.935 13.1959 89.5772 12.7325C90.2186 12.2564 91.0632 12.0192 92.1087 12.0192C93.0957 12.0192 93.9158 12.239 94.569 12.6787C95.223 13.1184 95.6509 13.6949 95.8534 14.4082L93.7671 15.0503C93.6722 14.598 93.4761 14.2777 93.1787 14.0871C92.8932 13.8973 92.5365 13.8024 92.1087 13.8024C91.6808 13.8024 91.3542 13.8791 91.128 14.0334C91.0222 14.0946 90.9349 14.1833 90.8753 14.29C90.8157 14.3968 90.7861 14.5177 90.7895 14.6399C90.7895 14.9246 90.9082 15.1389 91.1462 15.282C91.3835 15.4125 91.7046 15.5137 92.1087 15.5849L92.6077 15.6742C93.2736 15.7929 93.8739 15.9534 94.4093 16.155C94.9557 16.3448 95.3836 16.6248 95.6928 16.9933C96.0139 17.3491 96.1744 17.837 96.1744 18.4554C96.1744 19.3822 95.8352 20.1011 95.1574 20.6127C94.4923 21.1117 93.5947 21.3616 92.4653 21.3616ZM100.71 21.254C100.021 21.254 99.4146 21.0998 98.8918 20.7906C98.38 20.4689 97.9666 20.0126 97.6968 19.4716C97.4121 18.9125 97.269 18.2712 97.269 17.546V12.2683H99.5158V17.3673C99.5158 18.0332 99.6763 18.5322 99.9974 18.8651C100.33 19.198 100.799 19.3641 101.406 19.3641C102.095 19.3641 102.63 19.1387 103.011 18.6871C103.391 18.2237 103.581 17.5816 103.581 16.7616V12.2683H105.828V21.1117H103.616V19.9532H103.296C103.153 20.2497 102.886 20.5415 102.493 20.8262C102.101 21.1117 101.506 21.254 100.71 21.254ZM107.526 21.1117V12.2683H109.736V13.2315H110.057C110.211 12.9342 110.467 12.6787 110.823 12.4644C111.18 12.239 111.65 12.126 112.233 12.126C112.862 12.126 113.368 12.2509 113.748 12.5C114.128 12.738 114.419 13.0536 114.622 13.445H114.942C115.145 13.0654 115.43 12.7499 115.799 12.5008C116.167 12.2509 116.69 12.126 117.368 12.126C117.914 12.126 118.408 12.2446 118.847 12.4826C119.299 12.708 119.656 13.0591 119.917 13.5344C120.19 13.9978 120.327 14.5861 120.327 15.2994V21.1117H118.08V15.4599C118.08 14.9728 117.956 14.6098 117.706 14.3726C117.456 14.1227 117.106 13.9978 116.654 13.9978C116.143 13.9978 115.745 14.1638 115.459 14.4975C115.186 14.8178 115.05 15.282 115.05 15.8878V21.1117H112.803V15.4599C112.803 14.9728 112.678 14.6098 112.429 14.3726C112.179 14.1227 111.829 13.9978 111.376 13.9978C110.865 13.9978 110.467 14.1638 110.182 14.4975C109.908 14.8178 109.772 15.282 109.772 15.8878V21.1117H107.526Z" fill="var(--fill-0, #192657)"/>
</g>
<defs>
<clipPath id="clip0_1973_28577">
<rect width="121" height="30.05" fill="white"/>
</clipPath>
</defs>
</svg>
