<svg preserveAspectRatio="none" width="100%" height="100%" overflow="visible" style="display: block;" viewBox="0 0 36 30" fill="none" xmlns="http://www.w3.org/2000/svg">
<path id="Vector" fill-rule="evenodd" clip-rule="evenodd" d="M24 30C27.1826 30 30.2348 28.7357 32.4853 26.4853C34.7357 24.2348 36 21.1826 36 18C36 13.2261 34.1036 8.64773 30.7279 5.27208C27.3523 1.89642 22.7739 0 18 0C13.2261 0 8.64773 1.89642 5.27208 5.27208C1.89642 8.64773 0 13.2261 0 18C0 21.1826 1.26428 24.2348 3.51472 26.4853C5.76516 28.7357 8.8174 30 12 30H24ZM18 4.8C14.4991 4.8 11.1417 6.19071 8.66619 8.66619C6.19071 11.1417 4.8 14.4991 4.8 18C4.8 19.9096 5.55857 21.7409 6.90883 23.0912C8.25909 24.4414 10.0904 25.2 12 25.2H24C25.9096 25.2 27.7409 24.4414 29.0912 23.0912C30.4414 21.7409 31.2 19.9096 31.2 18C31.2 14.4991 29.8093 11.1417 27.3338 8.66619C24.8583 6.19071 21.5009 4.8 18 4.8Z" fill="var(--fill-0, #3064E8)"/>
</svg>
