<svg preserveAspectRatio="none" width="100%" height="100%" overflow="visible" style="display: block;" viewBox="0 0 22 22" fill="none" xmlns="http://www.w3.org/2000/svg">
<g id="svg-1935459686_417">
<path id="Vector" opacity="0.2" d="M17.875 18.5625H13.75L4.125 3.4375H8.25L17.875 18.5625Z" fill="var(--fill-0, #737373)"/>
<path id="Vector_2" d="M18.4551 18.1938L13.0754 9.7393L18.3838 3.89984C18.5038 3.76451 18.5657 3.58731 18.556 3.40667C18.5462 3.22602 18.4657 3.05648 18.3318 2.93481C18.198 2.81314 18.0215 2.74915 17.8408 2.7567C17.66 2.76425 17.4895 2.84274 17.3663 2.97516L12.3097 8.53703L8.83008 3.06883C8.76803 2.97116 8.68234 2.89074 8.58094 2.83501C8.47953 2.77927 8.36571 2.75004 8.25 2.75H4.125C4.00173 2.74994 3.88072 2.78302 3.77462 2.84579C3.66853 2.90855 3.58126 2.99868 3.52196 3.10675C3.46265 3.21481 3.43349 3.33683 3.43754 3.46003C3.44158 3.58324 3.47867 3.70308 3.54492 3.80703L8.92461 12.2607L3.61625 18.1045C3.55426 18.171 3.5061 18.2493 3.47457 18.3346C3.44304 18.4199 3.42876 18.5107 3.43256 18.6016C3.43635 18.6925 3.45815 18.7817 3.4967 18.8641C3.53524 18.9466 3.58975 19.0205 3.65708 19.0817C3.72441 19.1429 3.80321 19.1901 3.88892 19.2206C3.97463 19.2511 4.06554 19.2643 4.15639 19.2594C4.24723 19.2545 4.33621 19.2316 4.41815 19.1921C4.50009 19.1526 4.57337 19.0972 4.63375 19.0291L9.69031 13.4673L13.1699 18.9355C13.2325 19.0323 13.3184 19.1119 13.4198 19.1669C13.5211 19.2218 13.6347 19.2504 13.75 19.25H17.875C17.9981 19.25 18.119 19.2169 18.225 19.1541C18.3309 19.0914 18.4181 19.0014 18.4774 18.8935C18.5367 18.7855 18.5659 18.6637 18.5619 18.5406C18.558 18.4175 18.5211 18.2978 18.4551 18.1938ZM14.1273 17.875L5.37711 4.125H7.8693L16.6229 17.875H14.1273Z" fill="var(--fill-0, #737373)"/>
</g>
</svg>
