<svg preserveAspectRatio="none" width="100%" height="100%" overflow="visible" style="display: block;" viewBox="0 0 12 12" fill="none" xmlns="http://www.w3.org/2000/svg">
<g id="svg1770086914_219">
<path id="Vector" d="M10.148 7.89797C10.0957 7.95041 10.0336 7.99202 9.96524 8.02041C9.89687 8.0488 9.82356 8.06341 9.74953 8.06341C9.6755 8.06341 9.60219 8.0488 9.53382 8.02041C9.46545 7.99202 9.40335 7.95041 9.35109 7.89797L6 4.54688L2.64797 7.89797C2.5423 8.00364 2.39897 8.06301 2.24953 8.06301C2.10009 8.06301 1.95677 8.00364 1.85109 7.89797C1.74542 7.7923 1.68606 7.64897 1.68606 7.49953C1.68606 7.35009 1.74542 7.20677 1.85109 7.10109L5.60109 3.35109C5.65335 3.29865 5.71545 3.25705 5.78382 3.22866C5.85219 3.20026 5.9255 3.18565 5.99953 3.18565C6.07356 3.18565 6.14687 3.20026 6.21524 3.22866C6.28361 3.25705 6.34571 3.29865 6.39797 3.35109L10.148 7.10109C10.2004 7.15335 10.242 7.21545 10.2704 7.28382C10.2988 7.35219 10.3134 7.4255 10.3134 7.49953C10.3134 7.57356 10.2988 7.64687 10.2704 7.71524C10.242 7.78361 10.2004 7.84571 10.148 7.89797Z" fill="var(--fill-0, #525252)"/>
</g>
</svg>
