<svg preserveAspectRatio="none" width="100%" height="100%" overflow="visible" style="display: block;" viewBox="0 0 48 48" fill="none" xmlns="http://www.w3.org/2000/svg">
<path id="Vector" fill-rule="evenodd" clip-rule="evenodd" d="M12 0C18.6276 0 24 5.3724 24 12V0H36C42.6276 0 48 5.3724 48 12C48 18.6276 42.6276 24 36 24C42.6276 24 48 29.3724 48 36C48.0039 39.1613 46.7562 42.1955 44.5296 44.4396L44.4852 44.4852L44.4456 44.5248C42.2008 46.7546 39.164 48.0042 36 48C34.4049 48.0022 32.8255 47.6854 31.3547 47.0682C29.8839 46.451 28.5514 45.5458 27.4356 44.406C25.23 42.1645 23.9957 39.1447 24 36C24 42.6276 18.6276 48 12 48C5.3724 48 0 42.6276 0 36V24H12C5.3724 24 0 18.6276 0 12C0 5.3724 5.3724 0 12 0ZM21.6 12C21.6 14.5461 20.5886 16.9879 18.7882 18.7882C16.9879 20.5886 14.5461 21.6 12 21.6V2.4C14.5461 2.4 16.9879 3.41143 18.7882 5.21178C20.5886 7.01212 21.6 9.45392 21.6 12ZM45.6 36C45.6 33.4539 44.5886 31.0121 42.7882 29.2118C40.9879 27.4114 38.5461 26.4 36 26.4C33.4539 26.4 31.0121 27.4114 29.2118 29.2118C27.4114 31.0121 26.4 33.4539 26.4 36H45.6ZM2.4 26.4V36C2.4 38.5461 3.41143 40.9879 5.21177 42.7882C7.01212 44.5886 9.45392 45.6 12 45.6C14.5461 45.6 16.9879 44.5886 18.7882 42.7882C20.5886 40.9879 21.6 38.5461 21.6 36V26.4H2.4ZM26.4 21.6V2.4H36C38.5461 2.4 40.9879 3.41143 42.7882 5.21178C44.5886 7.01212 45.6 9.45392 45.6 12C45.6 14.5461 44.5886 16.9879 42.7882 18.7882C40.9879 20.5886 38.5461 21.6 36 21.6H26.4Z" fill="var(--fill-0, #5417D7)"/>
</svg>
