<svg preserveAspectRatio="none" width="100%" height="100%" overflow="visible" style="display: block;" viewBox="0 0 116 30" fill="none" xmlns="http://www.w3.org/2000/svg">
<g id="svg994580029_2512">
<path id="Vector" d="M21.4991 12.609C23.7323 12.609 24.2347 13.5789 24.2347 14.7886C24.2347 16.0709 23.627 16.9896 21.5084 16.9896C19.4033 16.9896 18.7948 16.1243 18.7948 14.7886C18.7948 13.4743 19.4581 12.609 21.4991 12.609ZM44.8372 12.609C47.0704 12.609 47.5728 13.5789 47.5728 14.7886C47.5728 16.0709 46.9643 16.9896 44.8465 16.9896C42.7421 16.9896 42.1329 16.1243 42.1329 14.7886C42.1329 13.4743 42.7962 12.609 44.8372 12.609Z" fill="var(--fill-0, #394149)"/>
<path id="Vector_2" fill-rule="evenodd" clip-rule="evenodd" d="M1.72719 27.3969V2.16827H114.58V27.3969H1.72719ZM55.5128 25.9737H113.157V3.59148H55.5128V25.9737ZM21.5098 19.1373C25.4745 19.1373 27.1412 17.4273 27.1412 14.7566C27.1412 12.0425 25.2638 10.4293 21.5098 10.4293C17.8135 10.4293 15.8678 12.1813 15.8678 14.7566C15.8678 17.6628 17.9088 19.1373 21.5098 19.1373ZM7.72574 10.6214V19.0092H15.7276V16.7754H10.6208V10.6214H7.72574ZM36.0966 19.0092L36.0219 18.1965C35.0535 18.8876 33.8747 19.2202 32.6878 19.1373C30.9037 19.1373 29.4177 18.6028 28.5844 17.524C28.0348 16.7364 27.7572 15.791 27.7937 14.8313C27.7625 13.8918 28.0496 12.9692 28.6086 12.2133C29.4519 11.1665 30.9805 10.472 33.2564 10.472C35.8746 10.472 37.4132 11.2733 38.075 12.6196C38.2174 12.937 38.3006 13.2772 38.3213 13.6237H35.5515C35.4817 13.413 35.3519 13.2272 35.1779 13.0893C34.6262 12.7236 33.9673 12.5543 33.3077 12.609C32.9207 12.5621 32.5282 12.5978 32.1562 12.7139C31.7841 12.8299 31.4409 13.0236 31.1492 13.2821C30.818 13.7354 30.6625 14.2934 30.7115 14.8527C30.6731 15.3864 30.8161 15.9172 31.1172 16.3591C31.4115 16.6333 31.7613 16.8411 32.1429 16.9683C32.5245 17.0955 32.929 17.1391 33.329 17.0964C34.1235 17.161 34.9122 16.9159 35.5302 16.4125C35.6628 16.2465 35.7543 16.0514 35.797 15.8432H32.8166V14.0407H38.3939V19.0092H36.0966ZM44.8479 19.1373C48.8118 19.1373 50.4792 17.4273 50.4792 14.7566C50.4792 12.0425 48.599 10.4293 44.8479 10.4293C41.1515 10.4293 39.2059 12.1813 39.2059 14.7566C39.2059 17.6628 41.2469 19.1373 44.8479 19.1373Z" fill="var(--fill-0, #394149)"/>
<path id="Vector_3" d="M60.389 18.9771V10.5894H62.4528V18.9771H60.389ZM73.0508 15.4725C72.5278 16.1563 71.6275 16.4687 70.3586 16.4766C70.091 16.4766 66.5434 16.4659 66.5434 16.4659V18.9771H64.5238V10.5894H70.3593C70.8271 10.5399 71.3 10.5894 71.7473 10.7348C72.1946 10.8803 72.6063 11.1183 72.9555 11.4334C73.4166 12.034 73.6408 12.7833 73.586 13.5383C73.6331 14.2252 73.4443 14.9075 73.0508 15.4725ZM71.3948 12.7378C71.1813 12.4175 70.7209 12.2396 69.9416 12.2396H66.5328V14.7929H69.9195C70.7529 14.7929 71.192 14.6221 71.3948 14.2905C71.5151 14.0571 71.567 13.7938 71.5442 13.5319C71.5621 13.2588 71.5107 12.9857 71.3948 12.7378ZM79.5376 19.1052C75.7331 19.1052 74.5688 17.682 74.5688 16.2737H76.7272C76.7272 16.9683 77.678 17.492 79.6336 17.492C81.5779 17.492 82.091 17.1497 82.091 16.594C82.091 15.9742 81.7067 15.782 79.9005 15.5792C79.5447 15.5472 78.5761 15.4298 78.2125 15.3764C75.6505 15.0875 74.6641 14.3289 74.6641 12.9719C74.6641 11.5401 76.1074 10.4613 79.238 10.4613C82.6361 10.4613 83.9399 11.797 83.9399 13.1861H81.8049C81.8049 12.4809 81.0036 12.0746 79.112 12.0746C77.167 12.0746 76.7507 12.3414 76.7507 12.8651C76.7507 13.4102 77.1777 13.581 79.2415 13.8265C79.7119 13.8913 80.7588 14.0087 81.047 14.04C83.2275 14.2642 84.2103 15.0548 84.2103 16.4545C84.2067 18.1218 82.7108 19.1052 79.5376 19.1052ZM90.2879 19.0946C87.4996 19.0946 85.6827 17.9937 85.6827 15.6788V10.5894H87.723V15.7073C87.723 16.7655 88.5891 17.47 90.3732 17.47C91.9866 17.47 92.9487 16.8082 92.9487 15.7073V10.5894H94.9684V15.8688C94.9684 17.9731 93.2797 19.0946 90.2879 19.0946ZM106.028 18.9771V13.3782L103.409 18.9771H101.422L98.879 13.3782V18.9771H96.9575V10.5894H99.5607L102.446 16.9789L105.395 10.5894H107.957V18.9771H106.028Z" fill="var(--fill-0, #394149)"/>
</g>
</svg>
