<svg preserveAspectRatio="none" width="100%" height="100%" overflow="visible" style="display: block;" viewBox="0 0 15 15" fill="none" xmlns="http://www.w3.org/2000/svg">
<path id="Vector" d="M11.3513 7.56625L8.12754 6.375L6.94004 3.14875C6.86972 2.95771 6.74249 2.79283 6.57552 2.67637C6.40854 2.5599 6.20987 2.49746 6.00629 2.49746C5.80271 2.49746 5.60404 2.5599 5.43707 2.67637C5.27009 2.79283 5.14286 2.95771 5.07254 3.14875L3.87754 6.375L0.651291 7.5625C0.460247 7.63282 0.29537 7.76005 0.178907 7.92702C0.0624441 8.094 0 8.29267 0 8.49625C0 8.69983 0.0624441 8.8985 0.178907 9.06548C0.29537 9.23245 0.460247 9.35968 0.651291 9.43L3.87754 10.625L5.06504 13.8512C5.13536 14.0423 5.26259 14.2072 5.42957 14.3236C5.59654 14.4401 5.79522 14.5025 5.99879 14.5025C6.20237 14.5025 6.40104 14.4401 6.56802 14.3236C6.73499 14.2072 6.86222 14.0423 6.93254 13.8512L8.12754 10.625L11.3538 9.4375C11.5448 9.36718 11.7097 9.23995 11.8262 9.07298C11.9426 8.906 12.0051 8.70733 12.0051 8.50375C12.0051 8.30017 11.9426 8.1015 11.8262 7.93452C11.7097 7.76755 11.5448 7.64032 11.3538 7.57L11.3513 7.56625ZM7.56504 9.76375C7.49717 9.78876 7.43554 9.8282 7.38439 9.87935C7.33324 9.9305 7.2938 9.99213 7.26879 10.06L6.00254 13.4906L4.73879 10.0625C4.71382 9.99392 4.67413 9.93163 4.62252 9.88002C4.57091 9.82841 4.50863 9.78872 4.44004 9.76375L1.01192 8.5L4.44004 7.23625C4.50863 7.21128 4.57091 7.17159 4.62252 7.11998C4.67413 7.06837 4.71382 7.00608 4.73879 6.9375L6.00254 3.50938L7.26629 6.9375C7.2913 7.00537 7.33074 7.067 7.38189 7.11815C7.43304 7.1693 7.49467 7.20874 7.56254 7.23375L10.9932 8.5L7.56504 9.76375ZM8.00254 2C8.00254 1.86739 8.05522 1.74021 8.14899 1.64645C8.24276 1.55268 8.36993 1.5 8.50254 1.5H9.50254V0.5C9.50254 0.367392 9.55522 0.240215 9.64899 0.146447C9.74276 0.0526784 9.86993 0 10.0025 0C10.1351 0 10.2623 0.0526784 10.3561 0.146447C10.4499 0.240215 10.5025 0.367392 10.5025 0.5V1.5H11.5025C11.6351 1.5 11.7623 1.55268 11.8561 1.64645C11.9499 1.74021 12.0025 1.86739 12.0025 2C12.0025 2.13261 11.9499 2.25979 11.8561 2.35355C11.7623 2.44732 11.6351 2.5 11.5025 2.5H10.5025V3.5C10.5025 3.63261 10.4499 3.75979 10.3561 3.85355C10.2623 3.94732 10.1351 4 10.0025 4C9.86993 4 9.74276 3.94732 9.64899 3.85355C9.55522 3.75979 9.50254 3.63261 9.50254 3.5V2.5H8.50254C8.36993 2.5 8.24276 2.44732 8.14899 2.35355C8.05522 2.25979 8.00254 2.13261 8.00254 2ZM14.5025 5C14.5025 5.13261 14.4499 5.25979 14.3561 5.35355C14.2623 5.44732 14.1351 5.5 14.0025 5.5H13.5025V6C13.5025 6.13261 13.4499 6.25979 13.3561 6.35355C13.2623 6.44732 13.1351 6.5 13.0025 6.5C12.8699 6.5 12.7428 6.44732 12.649 6.35355C12.5552 6.25979 12.5025 6.13261 12.5025 6V5.5H12.0025C11.8699 5.5 11.7428 5.44732 11.649 5.35355C11.5552 5.25979 11.5025 5.13261 11.5025 5C11.5025 4.86739 11.5552 4.74021 11.649 4.64645C11.7428 4.55268 11.8699 4.5 12.0025 4.5H12.5025V4C12.5025 3.86739 12.5552 3.74021 12.649 3.64645C12.7428 3.55268 12.8699 3.5 13.0025 3.5C13.1351 3.5 13.2623 3.55268 13.3561 3.64645C13.4499 3.74021 13.5025 3.86739 13.5025 4V4.5H14.0025C14.1351 4.5 14.2623 4.55268 14.3561 4.64645C14.4499 4.74021 14.5025 4.86739 14.5025 5Z" fill="var(--fill-0, #525252)"/>
</svg>
