<svg preserveAspectRatio="none" width="100%" height="100%" overflow="visible" style="display: block;" viewBox="0 0 79 31" fill="none" xmlns="http://www.w3.org/2000/svg">
<g id="svg-1239447721_4875" clip-path="url(#clip0_1973_28556)">
<path id="Vector" d="M36.2166 26.5056H38.2736V18.7475H36.2166V26.5056ZM36.2166 17.5373H38.2736V15.6921H36.2166V17.5373ZM39.5993 29.0465H41.6571V25.6285H41.6872C42.1258 26.2942 42.8368 26.7327 43.9263 26.7327C45.9231 26.7327 47.2841 25.1449 47.2841 22.6341C47.2841 20.2143 45.9675 18.5354 43.9112 18.5354C42.8519 18.5354 42.1258 19.0349 41.627 19.7156H41.5818V18.7475H39.5993V29.0465ZM43.4876 25.0238C42.262 25.0238 41.6112 24.1008 41.6112 22.6942C41.6112 21.3027 42.1258 20.1992 43.4116 20.1992C44.6824 20.1992 45.197 21.2275 45.197 22.6942C45.197 24.161 44.5312 25.0238 43.4876 25.0238ZM51.3876 26.7327C53.3242 26.7327 54.656 25.7948 54.656 24.237C54.656 22.422 53.2189 22.0594 51.9173 21.7871C50.8135 21.56 49.7843 21.4998 49.7843 20.8341C49.7843 20.2745 50.314 19.9721 51.116 19.9721C51.9933 19.9721 52.523 20.2745 52.6132 21.1064H54.4739C54.3234 19.5494 53.1881 18.5354 51.1461 18.5354C49.3765 18.5354 47.9846 19.3372 47.9846 21.0161C47.9846 22.71 49.3464 23.0876 50.7383 23.3599C51.7969 23.5713 52.7795 23.6473 52.7795 24.3882C52.7795 24.9328 52.2656 25.2803 51.3575 25.2803C50.4351 25.2803 49.8001 24.8876 49.6639 23.9948H47.7574C47.8785 25.6436 49.1335 26.7327 51.3876 26.7327ZM62.4664 26.5056V18.7475H60.4094V23.2238C60.4094 24.252 59.8196 24.9779 58.8512 24.9779C57.974 24.9779 57.5647 24.4792 57.5647 23.5713V18.7475H55.5235V23.9196C55.5235 25.6135 56.491 26.7177 58.2162 26.7177C59.3049 26.7177 59.9098 26.3093 60.4395 25.5984H60.4847V26.5056H62.4664ZM63.7974 26.5056H65.8544V21.9992C65.8544 20.9702 66.4142 20.3053 67.2463 20.3053C68.0024 20.3053 68.4411 20.7589 68.4411 21.6359V26.5056H70.4988V21.9992C70.4988 20.9702 71.0285 20.3053 71.8908 20.3053C72.6469 20.3053 73.0855 20.7589 73.0855 21.6359V26.5056H75.1425V21.2884C75.1425 19.5945 74.2201 18.5354 72.5859 18.5354C71.6033 18.5354 70.7863 19.0499 70.2566 19.8969H70.2265C69.848 19.08 69.0618 18.5354 68.0784 18.5354C67.004 18.5354 66.2479 19.08 65.8243 19.7916H65.7792V18.7475H63.7974V26.5056ZM36.2467 13.2174H38.3045V2.40399H36.2467V13.2174ZM43.3349 13.4446C45.7402 13.4446 47.3887 11.6597 47.3887 9.34518C47.3887 7.0322 45.7402 5.24726 43.3349 5.24726C40.9295 5.24726 39.2803 7.0322 39.2803 9.34593C39.2803 11.6597 40.9295 13.4446 43.3349 13.4446ZM43.3349 11.8718C42.0634 11.8718 41.3682 10.8578 41.3682 9.34593C41.3682 7.83403 42.0641 6.80504 43.3349 6.80504C44.5899 6.80504 45.3009 7.83328 45.3009 9.34593C45.3009 10.8578 44.5899 11.8718 43.3349 11.8718ZM51.7638 15.8636C52.9134 15.8636 53.9119 15.5921 54.5627 14.9866C55.1375 14.4578 55.4851 13.7161 55.4851 12.6277V5.45938H53.5033V6.2755H53.4732C53.0045 5.62561 52.2935 5.24726 51.3252 5.24726C49.3584 5.24726 47.9665 6.72907 47.9665 9.04355C47.9665 11.3874 49.6609 12.7488 51.3854 12.7488C52.3687 12.7488 52.9586 12.3554 53.413 11.8409H53.4582V12.6879C53.4582 13.747 52.8984 14.3066 51.7337 14.3066C50.7804 14.3066 50.3418 13.9283 50.1755 13.4446H48.1336C48.345 14.9565 49.6459 15.8636 51.7638 15.8636ZM51.7337 11.1C50.6744 11.1 49.9784 10.329 49.9784 9.01346C49.9784 7.71218 50.6744 6.89606 51.7187 6.89606C52.9586 6.89606 53.5643 7.86412 53.5643 8.99842C53.5643 10.1478 53.0346 11.1 51.7337 11.1ZM60.4854 13.4446C62.8908 13.4446 64.54 11.6597 64.54 9.34518C64.54 7.0322 62.8908 5.24726 60.4854 5.24726C58.0808 5.24726 56.4316 7.0322 56.4316 9.34593C56.4316 11.6597 58.0808 13.4446 60.4854 13.4446ZM60.4854 11.8718C59.2154 11.8718 58.5194 10.8578 58.5194 9.34593C58.5194 7.83403 59.2154 6.80504 60.4862 6.80504C61.7411 6.80504 62.4521 7.83328 62.4521 9.34593C62.4521 10.8578 61.7411 11.8718 60.4854 11.8718ZM66.3434 10.2531H75.2381V8.48467H66.3434V10.2538V10.2531ZM75.8904 17.4297C75.8904 17.0814 76.1726 16.7994 76.5209 16.7994H77.7811C77.8657 16.7964 77.95 16.8106 78.029 16.8409C78.108 16.8712 78.1801 16.9172 78.241 16.976C78.3018 17.0348 78.3503 17.1052 78.3833 17.1831C78.4164 17.261 78.4334 17.3447 78.4334 17.4293C78.4334 17.5139 78.4164 17.5977 78.3833 17.6756C78.3503 17.7534 78.3018 17.8239 78.241 17.8827C78.1801 17.9414 78.108 17.9874 78.029 18.0177C77.95 18.0481 77.8657 18.0622 77.7811 18.0593H76.5209C76.3538 18.0593 76.1936 17.993 76.0753 17.8749C75.9571 17.7569 75.8906 17.5967 75.8904 17.4297Z" fill="var(--fill-0, black)"/>
<path id="Vector_2" fill-rule="evenodd" clip-rule="evenodd" d="M15.4404 0C23.7504 0 30.488 6.73509 30.488 15.0437C30.488 23.3524 23.7504 30.0875 15.4404 30.0875C7.12956 30.0875 0.392743 23.3524 0.392743 15.0437C0.392743 6.73509 7.12956 0 15.4404 0ZM14.8964 1.12602C13.1795 1.36672 11.5453 2.74624 10.276 5.05244C9.90735 5.72189 9.57631 6.46054 9.28664 7.25861C11.0118 6.82535 12.9071 6.56961 14.8964 6.53049V1.12602ZM8.01436 7.62041C8.34985 6.55006 8.78828 5.51473 9.3235 4.52892C9.95174 3.3856 10.6981 2.39797 11.5393 1.63977C9.28363 2.29826 7.23026 3.5142 5.56868 5.17536C3.9071 6.83651 2.69084 8.88936 2.03218 11.1444C2.79133 10.3035 3.77846 9.55729 4.92208 8.92847C5.90814 8.39338 6.94374 7.95582 8.01436 7.62041ZM7.65322 8.89161C7.21985 10.6164 6.96404 12.5111 6.92416 14.4999H1.5183C1.75982 12.7834 3.13969 11.1497 5.44649 9.88149C6.1161 9.51292 6.85494 9.1812 7.65322 8.89161ZM8.01286 14.4999C8.058 12.3299 8.37024 10.2922 8.88712 8.4922C10.6876 7.97544 12.7258 7.66329 14.8964 7.61816V9.96724C14.4938 10.9944 13.8832 11.9273 13.1029 12.7073C12.3225 13.4873 11.3893 14.0976 10.3618 14.4999H8.01286ZM6.92416 15.5876H1.5183C1.75982 17.3041 3.13969 18.9378 5.44649 20.206C6.1161 20.5746 6.85494 20.9063 7.65322 21.1959C7.21985 19.4711 6.96404 17.5764 6.92416 15.5876ZM8.88712 21.5953C8.37024 19.7953 8.05725 17.7576 8.01286 15.5876H10.3618C11.3893 15.9899 12.3225 16.6002 13.1029 17.3802C13.8832 18.1602 14.4938 19.0931 14.8964 20.1203V22.4693C12.7258 22.4242 10.6876 22.1121 8.88712 21.5953ZM8.01436 22.4678C6.94374 22.1324 5.90814 21.6941 4.92208 21.159C3.77846 20.5302 2.79133 19.784 2.03293 18.9431C2.69146 21.198 3.90748 23.2507 5.56879 24.9118C7.2301 26.573 9.28316 27.789 11.5385 28.4477C10.6974 27.6895 9.95099 26.7027 9.322 25.5593C8.78703 24.5735 8.34885 23.5382 8.01361 22.4678H8.01436ZM14.8964 28.9615C13.1795 28.7208 11.5453 27.3413 10.276 25.0351C9.90735 24.3656 9.57631 23.6262 9.28664 22.8289C11.0118 23.2622 12.9071 23.5179 14.8964 23.557V28.9615ZM19.3407 28.4477C20.1819 27.6895 20.9282 26.7027 21.5572 25.5593C22.0922 24.5735 22.5303 23.5382 22.8656 22.4678C23.9362 22.1324 24.9718 21.6941 25.9579 21.159C27.1015 20.5302 28.0894 19.784 28.847 18.9431C28.1885 21.198 26.9725 23.2507 25.3112 24.9118C23.6499 26.573 21.5968 27.789 19.3415 28.4477H19.3407ZM21.5941 22.8289C21.3214 23.5887 20.9904 24.3263 20.604 25.0351C19.3354 27.3413 17.7005 28.7208 15.9843 28.9615V23.557C17.9729 23.5179 19.8681 23.2622 21.5941 22.8289ZM23.2268 21.1959C23.9867 20.9235 24.7245 20.5928 25.4335 20.2068C27.7403 18.9378 29.1202 17.3033 29.3617 15.5876H23.9558C23.9159 17.5764 23.6601 19.4711 23.2268 21.1959ZM22.8679 15.5876C22.8227 17.7576 22.5105 19.7953 21.9928 21.5953C20.1924 22.1121 18.155 22.4242 15.9836 22.4693V20.1225C16.3859 19.0947 16.9964 18.1612 17.7769 17.3806C18.5574 16.6001 19.491 15.9893 20.5189 15.5868L22.8679 15.5876ZM23.9558 14.4999H29.3617C29.1202 12.7834 27.741 11.1497 25.4342 9.88149C24.7646 9.51292 24.025 9.1812 23.2268 8.89161C23.6601 10.6164 23.9159 12.5111 23.9558 14.4999ZM21.9921 8.4922C22.5097 10.2922 22.822 12.3299 22.8671 14.4999H20.5182C19.4905 14.0974 18.5571 13.4867 17.7767 12.7063C16.9964 11.9259 16.3859 10.9926 15.9836 9.96498V7.61816C18.1542 7.66329 20.1916 7.97544 21.9921 8.4922ZM22.8649 7.61966C23.9355 7.95508 24.9711 8.39339 25.9571 8.92847C27.1008 9.55729 28.0886 10.3035 28.8463 11.1444C28.1878 8.88962 26.9719 6.83695 25.3108 5.17581C23.6496 3.51468 21.5967 2.29859 19.3415 1.63977C20.1826 2.39797 20.929 3.38484 21.558 4.52817C22.0929 5.51402 22.5311 6.54935 22.8664 7.61966H22.8649ZM15.9836 1.12602C17.6998 1.36672 19.3347 2.74624 20.6032 5.05244C20.9719 5.72189 21.3029 6.46054 21.5933 7.25861C19.8674 6.82535 17.9721 6.56961 15.9828 6.53049L15.9836 1.12602Z" fill="var(--fill-0, black)"/>
</g>
<defs>
<clipPath id="clip0_1973_28556">
<rect width="79" height="30.0875" fill="white"/>
</clipPath>
</defs>
</svg>
