<svg preserveAspectRatio="none" width="100%" height="100%" overflow="visible" style="display: block;" viewBox="0 0 22 22" fill="none" xmlns="http://www.w3.org/2000/svg">
<g id="svg257648041_225">
<path id="Vector" d="M19.5938 11C19.5938 11.2735 19.4851 11.5358 19.2917 11.7292C19.0983 11.9226 18.836 12.0312 18.5625 12.0312H12.0312V18.5625C12.0312 18.836 11.9226 19.0983 11.7292 19.2917C11.5358 19.4851 11.2735 19.5938 11 19.5938C10.7265 19.5938 10.4642 19.4851 10.2708 19.2917C10.0774 19.0983 9.96875 18.836 9.96875 18.5625V12.0312H3.4375C3.164 12.0312 2.90169 11.9226 2.7083 11.7292C2.5149 11.5358 2.40625 11.2735 2.40625 11C2.40625 10.7265 2.5149 10.4642 2.7083 10.2708C2.90169 10.0774 3.164 9.96875 3.4375 9.96875H9.96875V3.4375C9.96875 3.164 10.0774 2.90169 10.2708 2.7083C10.4642 2.5149 10.7265 2.40625 11 2.40625C11.2735 2.40625 11.5358 2.5149 11.7292 2.7083C11.9226 2.90169 12.0312 3.164 12.0312 3.4375V9.96875H18.5625C18.836 9.96875 19.0983 10.0774 19.2917 10.2708C19.4851 10.4642 19.5938 10.7265 19.5938 11Z" fill="var(--fill-0, #525252)"/>
</g>
</svg>
