<svg preserveAspectRatio="none" width="100%" height="100%" overflow="visible" style="display: block;" viewBox="0 0 48 48" fill="none" xmlns="http://www.w3.org/2000/svg">
<path id="Vector" fill-rule="evenodd" clip-rule="evenodd" d="M30.6672 14.022C28.6937 12.7035 26.3735 11.9998 24 12V0C28.7468 0 33.3869 1.40758 37.3337 4.04473C41.2805 6.68188 44.3566 10.4302 46.1731 14.8156C47.9896 19.201 48.4649 24.0266 47.5389 28.6822C46.6128 33.3377 44.327 37.6141 40.9706 40.9706C37.6141 44.327 33.3377 46.6128 28.6822 47.5389C24.0266 48.4649 19.201 47.9896 14.8156 46.1731C10.4302 44.3566 6.68188 41.2805 4.04473 37.3337C1.40758 33.3869 0 28.7468 0 24H12C12.0001 26.0731 12.5373 28.1108 13.5592 29.9146C14.5811 31.7183 16.0529 33.2266 17.8311 34.2923C19.6093 35.3581 21.6332 35.945 23.7057 35.9958C25.7782 36.0466 27.8285 35.5597 29.6568 34.5824C31.4852 33.6051 33.0291 32.1709 34.1382 30.4194C35.2473 28.6679 35.8838 26.659 35.9855 24.5884C36.0873 22.5178 35.6509 20.4561 34.7188 18.6043C33.7868 16.7526 32.3909 15.1738 30.6672 14.022Z" fill="var(--fill-0, #007DFC)"/>
</svg>
