<svg preserveAspectRatio="none" width="100%" height="100%" overflow="visible" style="display: block;" viewBox="0 0 22 22" fill="none" xmlns="http://www.w3.org/2000/svg">
<g id="svg1981549492_1165" clip-path="url(#clip0_1973_28484)">
<path id="Vector" opacity="0.2" d="M17.875 8.9375V9.625C17.875 10.719 17.4404 11.7682 16.6668 12.5418C15.8932 13.3154 14.844 13.75 13.75 13.75H11.6875C12.4168 13.75 13.1163 14.0397 13.632 14.5555C14.1478 15.0712 14.4375 15.7707 14.4375 16.5V19.9375H8.9375V16.5C8.9375 15.7707 9.22723 15.0712 9.74296 14.5555C10.2587 14.0397 10.9582 13.75 11.6875 13.75H9.625C8.53098 13.75 7.48177 13.3154 6.70818 12.5418C5.9346 11.7682 5.5 10.719 5.5 9.625V8.9375C5.50654 8.10038 5.76103 7.28397 6.23133 6.59141C5.99111 5.96938 5.89336 5.30143 5.94526 4.63666C5.99716 3.97189 6.1974 3.3272 6.53125 2.75C7.28178 2.74982 8.02026 2.93868 8.67856 3.29915C9.33685 3.65961 9.89376 4.18007 10.2979 4.8125H13.0771C13.4812 4.18007 14.0381 3.65961 14.6964 3.29915C15.3547 2.93868 16.0932 2.74982 16.8438 2.75C17.1776 3.3272 17.3778 3.97189 17.4297 4.63666C17.4816 5.30143 17.3839 5.96938 17.1437 6.59141C17.614 7.28397 17.8685 8.10038 17.875 8.9375Z" fill="var(--fill-0, #737373)"/>
<path id="Vector_2" d="M17.9008 6.50375C18.1113 5.82596 18.1789 5.11189 18.0995 4.40663C18.0201 3.70137 17.7953 3.02024 17.4393 2.40625C17.3789 2.30171 17.2921 2.21491 17.1876 2.15457C17.083 2.09423 16.9645 2.06247 16.8438 2.0625C16.043 2.06082 15.2529 2.24646 14.5367 2.60458C13.8204 2.9627 13.1979 3.48337 12.7188 4.125H10.6562C10.1771 3.48337 9.55457 2.9627 8.83833 2.60458C8.1221 2.24646 7.33203 2.06082 6.53125 2.0625C6.41054 2.06247 6.29195 2.09423 6.18741 2.15457C6.08287 2.21491 5.99606 2.30171 5.9357 2.40625C5.57979 3.02026 5.35496 3.70135 5.27538 4.40658C5.19581 5.11181 5.26322 5.82587 5.47336 6.50375C5.04859 7.24515 4.82106 8.08309 4.8125 8.9375V9.625C4.81395 10.7883 5.23623 11.9117 6.00138 12.7879C6.76652 13.6641 7.82286 14.2338 8.97531 14.392C8.5049 14.9939 8.24956 15.736 8.25 16.5V17.1875H6.1875C5.64049 17.1875 5.11589 16.9702 4.72909 16.5834C4.3423 16.1966 4.125 15.672 4.125 15.125C4.125 14.6736 4.03609 14.2266 3.86334 13.8095C3.69059 13.3925 3.43738 13.0135 3.11818 12.6943C2.79898 12.3751 2.42003 12.1219 2.00297 11.9492C1.58592 11.7764 1.13892 11.6875 0.6875 11.6875C0.505164 11.6875 0.330295 11.7599 0.201364 11.8889C0.0724328 12.0178 0 12.1927 0 12.375C0 12.5573 0.0724328 12.7322 0.201364 12.8611C0.330295 12.9901 0.505164 13.0625 0.6875 13.0625C1.23451 13.0625 1.75911 13.2798 2.14591 13.6666C2.5327 14.0534 2.75 14.578 2.75 15.125C2.75 16.0367 3.11216 16.911 3.75682 17.5557C4.40148 18.2003 5.27582 18.5625 6.1875 18.5625H8.25V19.9375C8.25 20.1198 8.32243 20.2947 8.45136 20.4236C8.5803 20.5526 8.75516 20.625 8.9375 20.625C9.11984 20.625 9.2947 20.5526 9.42364 20.4236C9.55257 20.2947 9.625 20.1198 9.625 19.9375V16.5C9.625 15.953 9.8423 15.4284 10.2291 15.0416C10.6159 14.6548 11.1405 14.4375 11.6875 14.4375C12.2345 14.4375 12.7591 14.6548 13.1459 15.0416C13.5327 15.4284 13.75 15.953 13.75 16.5V19.9375C13.75 20.1198 13.8224 20.2947 13.9514 20.4236C14.0803 20.5526 14.2552 20.625 14.4375 20.625C14.6198 20.625 14.7947 20.5526 14.9236 20.4236C15.0526 20.2947 15.125 20.1198 15.125 19.9375V16.5C15.1254 15.736 14.8701 14.9939 14.3997 14.392C15.5521 14.2338 16.6085 13.6641 17.3736 12.7879C18.1388 11.9117 18.5611 10.7883 18.5625 9.625V8.9375C18.5542 8.08294 18.3263 7.24486 17.9008 6.50375ZM17.1875 9.625C17.1875 10.5367 16.8253 11.411 16.1807 12.0557C15.536 12.7003 14.6617 13.0625 13.75 13.0625H9.625C8.71332 13.0625 7.83898 12.7003 7.19432 12.0557C6.54966 11.411 6.1875 10.5367 6.1875 9.625V8.9375C6.19593 8.25002 6.40175 7.57945 6.78047 7.00562C6.85107 6.91257 6.89679 6.80307 6.91333 6.68744C6.92987 6.57181 6.91668 6.45388 6.875 6.34477C6.69593 5.88294 6.60974 5.39031 6.62139 4.89511C6.63304 4.39991 6.7423 3.91188 6.94289 3.45898C7.50554 3.51951 8.04735 3.7059 8.52816 4.00432C9.00897 4.30274 9.41645 4.70555 9.72039 5.18289C9.78233 5.27975 9.86757 5.35952 9.9683 5.41492C10.069 5.47032 10.1821 5.49957 10.297 5.5H13.0771C13.1925 5.5 13.3061 5.47096 13.4073 5.41554C13.5085 5.36012 13.5942 5.28011 13.6563 5.18289C13.9602 4.70551 14.3677 4.30267 14.8485 4.00424C15.3293 3.70581 15.8712 3.51945 16.4338 3.45898C16.6341 3.912 16.7431 4.40009 16.7545 4.89528C16.7658 5.39048 16.6793 5.88305 16.5 6.34477C16.4584 6.45284 16.4445 6.56957 16.4596 6.68438C16.4746 6.79919 16.518 6.90843 16.5859 7.00219C16.9682 7.5761 17.1771 8.248 17.1875 8.9375V9.625Z" fill="var(--fill-0, #737373)"/>
</g>
<defs>
<clipPath id="clip0_1973_28484">
<rect width="22" height="22" fill="white"/>
</clipPath>
</defs>
</svg>
