<svg preserveAspectRatio="none" width="100%" height="100%" overflow="visible" style="display: block;" viewBox="0 0 92 11" fill="none" xmlns="http://www.w3.org/2000/svg">
<path id="Vector" d="M0 0.521H2.393L4.92 6.818H5.028L7.555 0.521H9.941V9.894H8.066V3.795H7.988L5.614 9.849H4.332L1.958 3.772H1.882V9.894H0V0.521ZM13.279 10.026C12.874 10.035 12.472 9.955 12.1 9.791C11.769 9.643 11.487 9.4 11.289 9.092C11.08 8.744 10.977 8.34 10.991 7.932C10.981 7.591 11.053 7.253 11.202 6.947C11.337 6.688 11.535 6.468 11.776 6.307C12.03 6.139 12.309 6.015 12.602 5.941C12.922 5.856 13.248 5.799 13.578 5.769C13.977 5.726 14.3 5.684 14.545 5.646C14.732 5.628 14.913 5.569 15.077 5.474C15.19 5.399 15.254 5.267 15.246 5.13V5.103C15.26 4.849 15.163 4.602 14.979 4.43C14.764 4.259 14.495 4.174 14.223 4.192C13.933 4.177 13.646 4.258 13.404 4.423C13.21 4.564 13.067 4.768 13 5.001L11.235 4.855C11.317 4.445 11.499 4.063 11.765 3.745C12.038 3.422 12.385 3.174 12.776 3.022C13.239 2.845 13.73 2.759 14.225 2.769C14.599 2.769 14.971 2.817 15.333 2.912C15.668 2.996 15.984 3.14 16.268 3.339C16.54 3.527 16.763 3.781 16.917 4.077C17.083 4.409 17.165 4.777 17.156 5.149V9.894H15.345V8.92H15.291C15.181 9.14 15.031 9.336 14.848 9.498C14.65 9.671 14.421 9.804 14.174 9.887C13.886 9.984 13.583 10.031 13.279 10.026ZM13.827 8.682C14.085 8.687 14.34 8.628 14.57 8.51C14.776 8.404 14.951 8.244 15.076 8.045C15.199 7.849 15.263 7.62 15.261 7.386V6.636C15.184 6.683 15.102 6.719 15.017 6.744C14.914 6.775 14.798 6.805 14.669 6.83C14.541 6.856 14.412 6.879 14.284 6.899L13.935 6.953C13.733 6.979 13.535 7.033 13.347 7.113C13.194 7.174 13.06 7.276 12.958 7.407C12.862 7.54 12.814 7.702 12.819 7.866C12.806 8.105 12.913 8.334 13.102 8.474C13.317 8.619 13.57 8.692 13.827 8.682ZM20.986 10.009C20.484 10.016 19.991 9.871 19.568 9.594C19.122 9.296 18.771 8.871 18.557 8.372C18.297 7.746 18.175 7.068 18.198 6.388C18.175 5.697 18.305 5.01 18.579 4.378C18.795 3.885 19.146 3.467 19.59 3.173C20.007 2.908 20.49 2.77 20.981 2.774C21.314 2.762 21.645 2.83 21.947 2.972C22.189 3.089 22.405 3.258 22.579 3.466C22.725 3.642 22.848 3.837 22.944 4.046H23.003V0.521H24.907V9.894H23.02V8.763H22.939C22.84 8.973 22.713 9.169 22.562 9.343C22.385 9.543 22.17 9.704 21.93 9.816C21.633 9.951 21.311 10.017 20.986 10.009ZM21.591 8.46C21.873 8.469 22.149 8.377 22.373 8.202C22.599 8.011 22.769 7.76 22.865 7.478C22.985 7.126 23.042 6.755 23.034 6.383C23.043 6.012 22.985 5.643 22.865 5.294C22.771 5.013 22.6 4.765 22.373 4.579C22.147 4.408 21.871 4.32 21.59 4.328C21.303 4.318 21.023 4.411 20.796 4.59C20.57 4.779 20.401 5.03 20.307 5.313C20.191 5.657 20.134 6.019 20.139 6.383C20.132 6.751 20.189 7.118 20.307 7.466C20.4 7.751 20.569 8.005 20.794 8.199C21.022 8.377 21.304 8.468 21.591 8.457V8.46ZM29.413 10.032C28.777 10.05 28.148 9.897 27.588 9.589C27.082 9.301 26.671 8.865 26.409 8.336C26.121 7.739 25.979 7.078 25.996 6.412C25.981 5.753 26.123 5.099 26.409 4.507C26.669 3.977 27.073 3.534 27.571 3.23C28.107 2.916 28.717 2.758 29.334 2.774C29.767 2.771 30.197 2.845 30.604 2.994C30.99 3.139 31.342 3.366 31.636 3.66C31.941 3.977 32.176 4.357 32.323 4.776C32.496 5.279 32.579 5.81 32.569 6.343V6.879H26.761V5.665H30.776C30.781 5.405 30.719 5.147 30.596 4.918C30.48 4.704 30.31 4.525 30.102 4.402C29.878 4.275 29.625 4.211 29.369 4.216C29.1 4.211 28.834 4.282 28.601 4.421C28.383 4.552 28.202 4.74 28.079 4.965C27.952 5.196 27.885 5.457 27.885 5.722V6.872C27.877 7.183 27.942 7.492 28.075 7.772C28.195 8.017 28.383 8.221 28.616 8.359C28.87 8.501 29.156 8.572 29.445 8.563C29.643 8.566 29.84 8.535 30.028 8.472C30.197 8.416 30.351 8.323 30.48 8.199C30.607 8.073 30.705 7.92 30.766 7.749L32.532 7.868C32.449 8.288 32.261 8.679 31.984 9.001C31.692 9.335 31.326 9.593 30.916 9.753C30.437 9.943 29.927 10.037 29.413 10.032ZM37.324 1.958C37.053 1.964 36.791 1.859 36.596 1.667C36.404 1.492 36.295 1.242 36.295 0.979C36.295 0.716 36.404 0.466 36.596 0.291C37.007 -0.097 37.641 -0.097 38.052 0.291C38.245 0.465 38.355 0.716 38.355 0.979C38.358 1.245 38.247 1.5 38.052 1.676C37.856 1.866 37.594 1.967 37.324 1.958ZM36.365 9.894V2.865H38.274V9.894H36.365ZM41.516 5.837V9.894H39.609V2.865H41.427V4.104H41.508C41.655 3.705 41.923 3.364 42.275 3.132C42.665 2.884 43.119 2.76 43.579 2.774C44.016 2.763 44.448 2.874 44.829 3.094C45.186 3.31 45.474 3.627 45.658 4.006C45.864 4.446 45.965 4.93 45.953 5.418V9.892H44.045V5.762C44.068 5.395 43.952 5.033 43.722 4.752C43.487 4.502 43.158 4.37 42.82 4.388C42.585 4.385 42.353 4.445 42.146 4.56C41.949 4.674 41.79 4.846 41.688 5.053C41.572 5.297 41.513 5.566 41.516 5.837ZM50.044 9.894V0.521H56.11V2.155H51.978V4.392H55.711V6.025H51.978V9.897L50.044 9.894ZM57.077 9.894V2.865H58.931V4.091H59.001C59.099 3.699 59.321 3.351 59.633 3.101C59.927 2.874 60.287 2.753 60.656 2.757C60.759 2.758 60.862 2.764 60.964 2.776C61.062 2.786 61.16 2.803 61.256 2.826V4.562C61.134 4.528 61.009 4.504 60.883 4.49C60.739 4.469 60.594 4.458 60.449 4.457C60.187 4.452 59.929 4.516 59.699 4.643C59.482 4.763 59.302 4.942 59.178 5.159C59.049 5.39 58.983 5.652 58.988 5.918V9.894H57.077ZM63.814 10.026C63.408 10.035 63.006 9.955 62.634 9.791C62.302 9.644 62.019 9.401 61.82 9.092C61.611 8.744 61.507 8.34 61.522 7.932C61.512 7.591 61.584 7.253 61.733 6.947C61.868 6.688 62.066 6.468 62.307 6.307C62.561 6.139 62.84 6.015 63.133 5.941C63.453 5.857 63.779 5.799 64.108 5.769C64.508 5.726 64.831 5.684 65.076 5.646C65.263 5.627 65.445 5.569 65.61 5.474C65.722 5.399 65.787 5.267 65.778 5.13V5.103C65.794 4.849 65.696 4.601 65.512 4.43C65.298 4.259 65.03 4.174 64.759 4.192C64.468 4.176 64.18 4.257 63.938 4.423C63.744 4.564 63.601 4.767 63.534 5.001L61.77 4.855C61.851 4.445 62.032 4.063 62.297 3.745C62.574 3.422 62.925 3.174 63.318 3.022C63.781 2.845 64.273 2.759 64.767 2.769C65.138 2.767 65.508 2.813 65.868 2.905C66.202 2.989 66.519 3.134 66.804 3.332C67.075 3.521 67.297 3.774 67.452 4.07C67.617 4.403 67.698 4.774 67.687 5.147V9.894H65.883V8.92H65.829C65.717 9.141 65.563 9.337 65.377 9.498C65.18 9.671 64.951 9.804 64.703 9.887C64.416 9.983 64.116 10.03 63.814 10.026ZM64.366 8.682C64.624 8.687 64.879 8.628 65.109 8.51C65.316 8.404 65.49 8.244 65.615 8.045C65.736 7.848 65.799 7.619 65.795 7.386V6.636C65.719 6.683 65.637 6.719 65.551 6.744C65.446 6.775 65.332 6.805 65.204 6.83C65.076 6.856 64.946 6.879 64.818 6.899L64.467 6.953C64.266 6.98 64.069 7.033 63.881 7.113C63.728 7.174 63.594 7.275 63.492 7.407C63.396 7.54 63.347 7.702 63.352 7.866C63.339 8.105 63.446 8.335 63.637 8.474C63.852 8.621 64.108 8.693 64.366 8.682ZM68.985 9.894V2.865H70.803V4.104H70.884C71.015 3.71 71.266 3.368 71.602 3.13C72.336 2.654 73.273 2.654 74.008 3.13C74.335 3.364 74.57 3.708 74.672 4.103H74.742C74.882 3.701 75.151 3.36 75.506 3.135C75.898 2.886 76.354 2.76 76.817 2.772C77.401 2.749 77.968 2.975 78.384 3.395C78.785 3.813 78.985 4.403 78.985 5.165V9.894H77.081V5.552C77.106 5.228 76.995 4.908 76.776 4.672C76.57 4.476 76.296 4.371 76.015 4.38C75.709 4.362 75.412 4.485 75.204 4.715C75.001 4.963 74.897 5.279 74.913 5.602V9.894H73.059V5.51C73.075 5.207 72.971 4.91 72.771 4.686C72.571 4.479 72.295 4.368 72.011 4.38C71.81 4.376 71.612 4.433 71.442 4.542C71.269 4.653 71.13 4.81 71.039 4.996C70.935 5.21 70.884 5.446 70.891 5.684V9.894H68.985ZM83.439 10.032C82.802 10.05 82.173 9.897 81.612 9.589C81.106 9.3 80.695 8.864 80.433 8.336C80.146 7.738 80.005 7.078 80.021 6.412C80.007 5.753 80.148 5.099 80.433 4.507C80.693 3.977 81.097 3.534 81.595 3.23C82.131 2.916 82.742 2.759 83.359 2.774C83.792 2.771 84.222 2.845 84.63 2.994C85.016 3.139 85.368 3.366 85.661 3.66C85.967 3.976 86.201 4.357 86.347 4.776C86.521 5.279 86.605 5.81 86.595 6.343V6.879H80.786V5.665H84.802C84.806 5.405 84.744 5.147 84.621 4.918C84.506 4.703 84.334 4.525 84.126 4.402C83.902 4.275 83.649 4.21 83.393 4.216C83.124 4.211 82.859 4.282 82.626 4.421C82.408 4.551 82.227 4.739 82.104 4.965C81.977 5.196 81.91 5.457 81.91 5.722V6.872C81.903 7.183 81.968 7.492 82.101 7.772C82.22 8.018 82.409 8.222 82.642 8.359C82.895 8.501 83.181 8.572 83.471 8.563C83.668 8.566 83.865 8.536 84.052 8.472C84.221 8.416 84.376 8.323 84.505 8.199C84.633 8.073 84.73 7.919 84.792 7.749L86.558 7.868C86.474 8.288 86.285 8.679 86.008 9.001C85.716 9.335 85.351 9.592 84.942 9.753C84.463 9.943 83.952 10.037 83.439 10.032ZM87.654 9.894V2.865H89.508V4.091H89.58C89.677 3.699 89.899 3.35 90.211 3.101C90.505 2.874 90.865 2.753 91.233 2.757C91.336 2.758 91.439 2.764 91.542 2.776C91.64 2.786 91.737 2.803 91.833 2.826V4.562C91.711 4.528 91.587 4.504 91.461 4.49C91.317 4.469 91.173 4.458 91.028 4.457C90.766 4.452 90.507 4.516 90.276 4.643C90.06 4.764 89.88 4.942 89.756 5.159C89.626 5.39 89.56 5.652 89.565 5.918V9.894H87.654Z" fill="var(--fill-0, #231F20)"/>
</svg>
