<svg preserveAspectRatio="none" width="100%" height="100%" overflow="visible" style="display: block;" viewBox="0 0 24 18" fill="none" xmlns="http://www.w3.org/2000/svg">
<path id="Vector" d="M18 18H11.9952C10.8101 17.9986 9.65189 17.6466 8.6664 16.9884C7.80508 16.4124 7.10765 15.6231 6.64207 14.6974C6.17648 13.7717 5.95862 12.7412 6.00969 11.7062C6.06077 10.6713 6.37905 9.66727 6.93352 8.79192C7.488 7.91657 8.25976 7.19977 9.17361 6.71136C10.0875 6.22294 11.1123 5.97957 12.1481 6.00495C13.184 6.03033 14.1956 6.32359 15.0845 6.85617C15.9733 7.38875 16.709 8.14248 17.22 9.04393C17.7309 9.94539 17.9997 10.9638 18 12H13.2C13.2 11.7627 13.1296 11.5307 12.9978 11.3333C12.8659 11.136 12.6785 10.9822 12.4592 10.8913C12.2399 10.8005 11.9987 10.7768 11.7659 10.8231C11.5331 10.8694 11.3193 10.9836 11.1515 11.1515C10.9836 11.3193 10.8694 11.5331 10.8231 11.7659C10.7768 11.9987 10.8005 12.2399 10.8913 12.4592C10.9822 12.6785 11.136 12.8659 11.3333 12.9978C11.5307 13.1296 11.7627 13.2 12 13.2H18C18.3182 13.1997 18.6232 13.0732 18.8482 12.8482C19.0732 12.6232 19.1997 12.3182 19.2 12C19.1999 10.7551 18.8771 9.53151 18.263 8.44863C17.649 7.36575 16.7646 6.46058 15.6963 5.8215C14.628 5.18241 13.4122 4.83123 12.1676 4.80225C10.9231 4.77327 9.69229 5.06746 8.59538 5.65612C7.49847 6.24479 6.57292 7.1078 5.90909 8.16092C5.24526 9.21404 4.86582 10.4213 4.80782 11.6648C4.74982 12.9084 5.01523 14.1457 5.57814 15.256C6.14106 16.3664 6.98225 17.3118 8.0196 18H6C4.4087 18 2.88258 17.3679 1.75736 16.2426C0.632141 15.1174 0 13.5913 0 12C0 8.8174 1.26428 5.76516 3.51472 3.51472C5.76516 1.26428 8.8174 0 12 0C15.1826 0 18.2348 1.26428 20.4853 3.51472C22.7357 5.76516 24 8.8174 24 12C24 13.5913 23.3679 15.1174 22.2426 16.2426C21.1174 17.3679 19.5913 18 18 18Z" fill="var(--fill-0, #3064E8)"/>
</svg>
