<svg preserveAspectRatio="none" width="100%" height="100%" overflow="visible" style="display: block;" viewBox="0 0 20 20" fill="none" xmlns="http://www.w3.org/2000/svg">
<path id="Vector" fill-rule="evenodd" clip-rule="evenodd" d="M11.3315 0H8.6181V2.39958C8.6181 3.14893 9.22554 3.75631 9.97482 3.75631C10.7241 3.75631 11.3315 3.14893 11.3315 2.39958V0ZM8.63071 19.9405H11.3252V13.2439L16.0688 17.9876L17.9876 16.0689L13.2705 11.3518H19.9559V8.6153H9.97792C9.23387 8.6153 8.63071 9.21845 8.63071 9.9625V19.9405ZM0 8.61821V11.3317H2.39958C3.14893 11.3317 3.75631 10.7242 3.75631 9.97494C3.75631 9.22559 3.14893 8.61821 2.39958 8.61821H0ZM1.9622 3.88095L3.88089 1.96226L5.57768 3.65905C6.1075 4.18881 6.1075 5.04792 5.57768 5.57774C5.04786 6.10756 4.18881 6.10756 3.65899 5.57774L1.9622 3.88095ZM16.0687 1.96226L17.9875 3.88095L16.2907 5.57774C15.7608 6.10756 14.9018 6.10756 14.372 5.57774C13.8421 5.04792 13.8421 4.18887 14.372 3.65905L16.0687 1.96226ZM1.96226 16.0689L3.88095 17.9876L5.57774 16.2908C6.10756 15.761 6.10756 14.9019 5.57774 14.3721C5.04792 13.8423 4.18887 13.8423 3.65905 14.3721L1.96226 16.0689Z" fill="var(--fill-0, #FC5201)"/>
</svg>
