<svg preserveAspectRatio="none" width="100%" height="100%" overflow="visible" style="display: block;" viewBox="0 0 48 42" fill="none" xmlns="http://www.w3.org/2000/svg">
<path id="Vector" fill-rule="evenodd" clip-rule="evenodd" d="M15.6 42C13.5325 41.9958 11.4924 41.5275 9.63 40.6296C7.7376 39.7248 6.018 38.4 4.5696 36.7284C3.09196 35.0067 1.94548 33.0266 1.188 30.888C0.4032 28.704 0 26.364 0 24C0 17.6348 2.52856 11.5303 7.02944 7.02944C11.5303 2.52856 17.6348 0 24 0C30.3652 0 36.4697 2.52856 40.9706 7.02944C45.4714 11.5303 48 17.6348 48 24C48 26.364 47.5968 28.704 46.812 30.888C46.0545 33.0266 44.908 35.0067 43.4304 36.7284C41.982 38.4 40.2624 39.7248 38.37 40.6296C36.5076 41.5273 34.4675 41.9957 32.4 42H15.6ZM10.4232 10.4232C13.1084 7.73789 16.5295 5.90916 20.2541 5.16826C23.9786 4.42737 27.8392 4.80759 31.3476 6.26085C34.856 7.71411 37.8547 10.1751 39.9644 13.3327C42.0742 16.4902 43.2001 20.2025 43.2 24C43.2 25.8216 42.888 27.612 42.2952 29.2668C41.7379 30.8472 40.8933 32.3109 39.804 33.5844C38.7636 34.7844 37.5648 35.694 36.3 36.2988C35.084 36.8876 33.7511 37.1956 32.4 37.2H15.6C14.249 37.196 12.9161 36.8884 11.7 36.3C10.434 35.694 9.2364 34.7844 8.196 33.5844C7.10673 32.3109 6.26215 30.8472 5.7048 29.2668C5.10307 27.5762 4.79699 25.7945 4.8 24C4.79991 21.4786 5.29645 18.9818 6.26128 16.6523C7.22612 14.3228 8.64034 12.2062 10.4232 10.4232Z" fill="var(--fill-0, #3064E8)"/>
</svg>
