<svg preserveAspectRatio="none" width="100%" height="100%" overflow="visible" style="display: block;" viewBox="0 0 79 31" fill="none" xmlns="http://www.w3.org/2000/svg">
<g id="svg365335875_2780">
<path id="Vector" d="M16.1002 15.2195C16.1002 14.1238 16.7548 13.3608 17.7545 13.3608C18.7546 13.3608 19.4087 14.1238 19.4087 15.2195C19.4087 16.3026 18.7546 17.0782 17.755 17.0782C16.7543 17.0782 16.1002 16.3026 16.1002 15.2195ZM24.5574 13.3108C23.6068 13.3108 22.9648 14.0495 22.9648 15.0589C22.9648 16.0809 23.6189 16.8439 24.5574 16.8439C25.5944 16.8439 26.2859 16.0688 26.2859 15.0589C26.2859 14.0622 25.5944 13.3108 24.5574 13.3108ZM30.0679 15.2195C30.0679 14.1238 30.722 13.3608 31.7222 13.3608C32.7223 13.3608 33.3764 14.1238 33.3764 15.2195C33.3764 16.3026 32.7223 17.0782 31.7227 17.0782C30.722 17.0782 30.0679 16.3026 30.0679 15.2195ZM40.1283 15.2316C40.1283 14.1364 40.7951 13.3729 41.8442 13.3729C42.8938 13.3729 43.5232 14.1485 43.5232 15.2316C43.5232 16.3147 42.8938 17.0782 41.8442 17.0782C40.7951 17.0782 40.1283 16.3273 40.1283 15.2316Z" fill="var(--fill-0, #152C4F)"/>
<path id="Vector_2" fill-rule="evenodd" clip-rule="evenodd" d="M39.5 28.0985C60.4761 28.0985 77.4806 22.1487 77.4806 14.8088C77.4806 7.4689 60.4761 1.51905 39.5 1.51905C18.5239 1.51905 1.51943 7.4689 1.51943 14.8088C1.51943 22.1487 18.5239 28.0985 39.5 28.0985ZM13.6602 18.2723V9.11327H12.1539V18.2723H13.6602ZM14.5818 15.2195C14.5818 17.0903 15.8411 18.4203 17.7545 18.4203C19.6684 18.4203 20.9276 17.0903 20.9276 15.219C20.9276 13.3482 19.6684 12.0187 17.7545 12.0187C15.8411 12.0187 14.5818 13.3482 14.5818 15.2195ZM24.2983 18.1491C22.5819 18.1491 21.4338 16.8691 21.4338 15.0963C21.4338 13.3113 22.6066 11.9939 24.3473 11.9939C25.2489 11.9939 26.0142 12.3757 26.3844 13.0154L26.4708 12.1909H27.8043V17.9649C27.8043 19.9709 26.5451 21.2641 24.5695 21.2641C22.8905 21.2641 21.6686 20.23 21.4711 18.642H22.9895C23.0759 19.4423 23.7179 19.8972 24.6559 19.8972C25.7055 19.8972 26.3349 19.2327 26.3349 18.2355V17.2014C25.9526 17.7921 25.1868 18.1491 24.2983 18.1491ZM28.5495 15.2195C28.5495 17.0903 29.8083 18.4203 31.7222 18.4203C33.6356 18.4203 34.8948 17.0903 34.8948 15.219C34.8948 13.3482 33.6361 12.0187 31.7222 12.0187C29.8088 12.0187 28.5495 13.3482 28.5495 15.2195ZM37.4265 10.0489C37.4265 10.5533 37.0189 10.9472 36.5249 10.9472C36.0193 10.9472 35.6364 10.5533 35.6364 10.0489C35.6364 9.55608 36.0187 9.16224 36.5249 9.16224C37.0189 9.16224 37.4265 9.55608 37.4265 10.0489ZM37.278 12.1909V18.2723H35.7717V12.1909H37.278ZM38.5978 21.0914H40.0672V17.4352C40.4496 18.0633 41.2764 18.4324 42.1897 18.4324C43.9925 18.4324 45.0669 17.0534 45.0421 15.1574C45.0052 13.2497 43.9061 12.0061 42.1776 12.0061C41.2517 12.0061 40.4122 12.4125 40.0419 13.1144L39.9556 12.1909H38.5978V21.0914ZM47.8687 18.4324C46.412 18.4324 45.474 17.6568 45.4245 16.4505H46.7949C46.7949 16.9797 47.1772 17.2877 47.844 17.2877C48.3996 17.2877 48.8562 17.0661 48.8562 16.5859C48.8562 16.241 48.6092 16.0562 48.2142 15.9456L47.1525 15.6749C45.9801 15.3669 45.523 14.7145 45.523 13.9269C45.523 12.7695 46.4983 12.0061 47.8071 12.0061C49.128 12.0061 50.0296 12.7695 50.0786 13.9758H48.7082C48.7082 13.4467 48.338 13.1265 47.7702 13.1265C47.2267 13.1265 46.8933 13.4219 46.8933 13.8405C46.8933 14.2343 47.202 14.3944 47.6591 14.5176L48.733 14.7756C49.7331 15.022 50.2761 15.6128 50.2761 16.4869C50.2761 17.6689 49.3007 18.4324 47.8687 18.4324ZM53.4003 18.4324C54.2272 18.4324 55.0172 18.0507 55.3753 17.4847L55.4743 18.2723H56.8816V12.1909H55.3753V15.3796C55.3753 16.4748 54.9556 17.0908 53.9681 17.0908C53.2028 17.0908 52.6719 16.7212 52.6719 15.4654V12.1903H51.1657V15.9951C51.1657 17.4478 51.9557 18.4324 53.4003 18.4324ZM59.7171 14.7762V18.2723H58.2109V12.1909H59.5934L59.6676 12.8806C60.0258 12.3383 60.6678 12.0066 61.3835 12.0066C62.3958 12.0066 63.0625 12.4489 63.3959 13.1634C63.6924 12.4494 64.4208 12.0061 65.3467 12.0061C66.8282 12.0061 67.6056 12.8927 67.6056 14.2965V18.2723H66.1488V14.6408C66.1488 13.7789 65.6801 13.3234 64.9517 13.3234C64.2354 13.3234 63.6677 13.7915 63.6677 14.7883V18.2723H62.1983V14.6408C62.1983 13.7789 61.7295 13.3234 61.0133 13.3234C60.2975 13.3234 59.7171 13.7915 59.7171 14.7762Z" fill="var(--fill-0, #152C4F)"/>
</g>
</svg>
