<svg preserveAspectRatio="none" width="100%" height="100%" overflow="visible" style="display: block;" viewBox="0 0 127 31" fill="none" xmlns="http://www.w3.org/2000/svg">
<g id="svg-82638414_1147" clip-path="url(#clip0_1973_28570)">
<path id="Vector" fill-rule="evenodd" clip-rule="evenodd" d="M7.52607 1.87812V30.05H0V1.87812H7.52607ZM11.2887 1.87812H27.2817C32.4767 1.87812 36.6887 6.08212 36.6887 11.2688C36.6887 16.4554 32.4767 20.6594 27.2817 20.6594H18.8148V30.05H11.2887V1.87812ZM18.8148 13.1469H27.2817C27.7802 13.1471 28.2584 12.9493 28.6112 12.5971C28.9639 12.2449 29.1623 11.7671 29.1627 11.2688C29.1627 10.232 28.321 9.39063 27.2817 9.39063H18.8148V13.1469ZM64.9113 1.87812V16.4336C64.9113 19.8045 67.6489 22.5375 71.0261 22.5375C74.4032 22.5375 77.1409 19.8045 77.1409 16.4336V1.87812H84.6669V16.4336C84.6669 23.9536 78.5596 30.05 71.0261 30.05C63.4925 30.05 57.3852 23.9536 57.3852 16.4336V1.87812H64.9113Z" fill="var(--fill-0, #283841)"/>
<path id="Vector_2" fill-rule="evenodd" clip-rule="evenodd" d="M39.5113 15.025C39.5113 7.76417 45.4074 1.87812 52.6817 1.87812H54.5627V9.39063H52.6817C49.5638 9.39063 47.0373 11.9133 47.0373 15.025V15.9641C47.0373 23.7433 40.7189 30.05 32.9261 30.05H31.9852V22.5375H32.9261C36.5632 22.5375 39.5113 19.5941 39.5113 15.9641V15.025Z" fill="var(--fill-0, #283841)"/>
<path id="Vector_3" d="M127 2.81719C127 3.18744 126.926 3.55401 126.784 3.89597C126.642 4.23793 126.434 4.54857 126.172 4.81017C125.91 5.07177 125.599 5.2792 125.257 5.42062C124.915 5.56204 124.548 5.63467 124.177 5.63437C123.807 5.63467 123.44 5.56203 123.098 5.42061C122.756 5.27918 122.445 5.07174 122.183 4.81013C121.921 4.54852 121.713 4.23787 121.571 3.89591C121.429 3.55396 121.356 3.18741 121.356 2.81719C121.356 2.44697 121.429 2.08041 121.571 1.73846C121.713 1.39651 121.921 1.08586 122.183 0.824247C122.445 0.562637 122.756 0.355195 123.098 0.213769C123.44 0.0723432 123.807 -0.00029607 124.177 0C124.548 -0.000296085 124.915 0.0723378 125.257 0.213754C125.599 0.355171 125.91 0.562601 126.172 0.824201C126.434 1.0858 126.642 1.39645 126.784 1.73841C126.926 2.08036 127 2.44693 127 2.81719ZM92.7476 30.05L96.3389 15.0385L99.0089 24.0693C100.601 29.4558 108.244 29.4558 109.836 24.0693L112.505 15.0393L116.097 30.05H123.834L118.187 6.44572C116.845 0.831633 108.92 0.623538 107.283 6.1595L104.423 15.8386L101.561 6.16025C99.925 0.62504 91.9999 0.832385 90.657 6.44572L85.0103 30.05H92.7476Z" fill="var(--fill-0, #283841)"/>
</g>
<defs>
<clipPath id="clip0_1973_28570">
<rect width="127" height="30.05" fill="white"/>
</clipPath>
</defs>
</svg>
