<svg preserveAspectRatio="none" width="100%" height="100%" overflow="visible" style="display: block;" viewBox="0 0 48 34" fill="none" xmlns="http://www.w3.org/2000/svg">
<path id="Vector" fill-rule="evenodd" clip-rule="evenodd" d="M1.25062 10.3704C0.006634 13.4479 -0.318083 16.8201 0.315823 20.0784C0.941975 23.3228 2.50422 26.313 4.80982 28.68C7.08874 31.0196 10.0176 32.6211 13.217 33.2772C16.403 33.9252 19.7054 33.5928 22.7054 32.3208C25.8633 30.976 28.5234 28.6803 30.3158 25.7532V33.6H31.5794C34.8362 33.5973 38.0161 32.6101 40.7018 30.768C43.4159 28.9053 45.5197 26.2829 46.7498 23.2296C47.9939 20.1521 48.3186 16.7799 47.6846 13.5216C47.0583 10.2776 45.4961 7.28782 43.1906 4.9212C40.9119 2.58112 37.9831 0.979158 34.7834 0.3228C31.5967 -0.325336 28.2883 0.00813761 25.295 1.2792C22.1372 2.62402 19.477 4.91969 17.6846 7.8468V0H16.421C13.1642 0.00272409 9.98437 0.9899 7.29862 2.832C4.58464 4.6948 2.48076 7.31713 1.25062 10.3704ZM15.1586 16.8V2.6436C12.8558 2.8596 10.6346 3.6588 8.70262 4.98C6.40573 6.55661 4.62534 8.77616 3.58462 11.3604C2.532 13.9638 2.25689 16.8166 2.79262 19.5732C3.32271 22.319 4.6451 24.8495 6.59662 26.8524C8.52478 28.8322 11.003 30.1875 13.7102 30.7428C16.4054 31.2912 19.199 31.0092 21.7382 29.9328C24.1852 28.8908 26.2836 27.1713 27.7862 24.9768C26.6065 25.5499 25.3118 25.847 24.0002 25.8456C19.1162 25.8456 15.1586 21.7956 15.1586 16.8ZM32.8418 30.9564V16.8C32.8418 11.8044 28.883 7.7544 24.0002 7.7544C22.6442 7.7544 21.3602 8.0664 20.213 8.6232C21.7156 6.42865 23.814 4.70915 26.261 3.6672C28.7935 2.59151 31.5927 2.30909 34.289 2.8572C36.9971 3.41207 39.4762 4.7674 41.405 6.7476C43.3557 8.75081 44.6773 11.2813 45.2066 14.0268C45.7427 16.7833 45.468 19.6361 44.4158 22.2396C43.3756 24.8238 41.5956 27.0433 39.299 28.62C37.3803 29.9343 35.1573 30.7384 32.8418 30.9564ZM23.8742 23.2608C20.4866 23.1924 17.7518 20.3952 17.6858 16.9296H20.075C21.959 17.3688 23.4446 18.8868 23.8742 20.8152V23.2608ZM24.1262 23.2608C27.5138 23.1924 30.2486 20.3952 30.3146 16.9296H27.9254C26.0402 17.3688 24.5558 18.8868 24.1262 20.8152V23.2608ZM30.3146 16.6704C30.2486 13.2048 27.5138 10.4076 24.1262 10.3392V12.7836C24.5558 14.7132 26.0402 16.2312 27.9254 16.6716L30.3146 16.6704ZM23.8742 10.3392C20.4866 10.4076 17.7518 13.2048 17.6858 16.6704H20.075C21.9602 16.2312 23.4446 14.7132 23.8742 12.7848V10.3392Z" fill="var(--fill-0, #8046FD)"/>
</svg>
