<svg preserveAspectRatio="none" width="100%" height="100%" overflow="visible" style="display: block;" viewBox="0 0 22 22" fill="none" xmlns="http://www.w3.org/2000/svg">
<g id="svg-1958247900_1161">
<path id="Vector" opacity="0.2" d="M19.4726 6.14711C19.4197 5.93512 19.317 5.7388 19.1731 5.5744C19.0292 5.41001 18.8481 5.28228 18.645 5.2018C15.7678 4.09492 11 4.125 11 4.125C11 4.125 6.23219 4.09492 3.35156 5.20609C3.14843 5.28658 2.96741 5.41431 2.82349 5.5787C2.67957 5.74309 2.5769 5.93942 2.52398 6.15141C2.32633 6.92141 2.0625 8.42961 2.0625 11C2.0625 13.5704 2.32633 15.0786 2.52742 15.8529C2.5806 16.0637 2.68302 16.259 2.82629 16.4225C2.96955 16.5861 3.14957 16.7134 3.35156 16.7939C6.23219 17.9051 11 17.875 11 17.875C11 17.875 15.7678 17.9051 18.6484 16.7939C18.8511 16.7138 19.0318 16.5868 19.1757 16.4232C19.3195 16.2596 19.4225 16.0641 19.476 15.8529C19.6771 15.0795 19.9409 13.5704 19.9409 11C19.9409 8.42961 19.6737 6.92141 19.4726 6.14711ZM9.625 13.75V8.25L13.75 11L9.625 13.75Z" fill="var(--fill-0, #737373)"/>
<path id="Vector_2" d="M14.1316 10.4277L10.0066 7.67766C9.903 7.60856 9.78262 7.56888 9.65827 7.56286C9.53392 7.55683 9.41027 7.58469 9.30051 7.64345C9.19075 7.70221 9.09901 7.78967 9.03508 7.8965C8.97115 8.00332 8.93742 8.1255 8.9375 8.25V13.75C8.93742 13.8745 8.97115 13.9967 9.03508 14.1035C9.09901 14.2103 9.19075 14.2978 9.30051 14.3566C9.41027 14.4153 9.53392 14.4432 9.65827 14.4371C9.78262 14.4311 9.903 14.3914 10.0066 14.3223L14.1316 11.5723C14.2259 11.5096 14.3032 11.4245 14.3567 11.3246C14.4102 11.2248 14.4382 11.1133 14.4382 11C14.4382 10.8867 14.4102 10.7752 14.3567 10.6754C14.3032 10.5755 14.2259 10.4904 14.1316 10.4277ZM10.3125 12.4652V9.53906L12.5108 11L10.3125 12.4652ZM20.1377 5.97437C20.0568 5.65756 19.9016 5.36455 19.6851 5.1195C19.4686 4.87445 19.1969 4.68439 18.8925 4.565C15.9466 3.42719 11.2578 3.4375 11 3.4375C10.7422 3.4375 6.05344 3.42719 3.1075 4.565C2.80308 4.68439 2.5314 4.87445 2.31489 5.1195C2.09838 5.36455 1.94324 5.65756 1.86227 5.97437C1.63969 6.83203 1.375 8.39953 1.375 11C1.375 13.6005 1.63969 15.168 1.86227 16.0256C1.94312 16.3426 2.09821 16.6358 2.31472 16.881C2.53124 17.1262 2.80298 17.3164 3.1075 17.4359C5.92969 18.5247 10.3469 18.5625 10.9433 18.5625H11.0567C11.6531 18.5625 16.0729 18.5247 18.8925 17.4359C19.197 17.3164 19.4688 17.1262 19.6853 16.881C19.9018 16.6358 20.0569 16.3426 20.1377 16.0256C20.3603 15.1662 20.625 13.6005 20.625 11C20.625 8.39953 20.3603 6.83203 20.1377 5.97437ZM18.8066 15.6853C18.7804 15.7907 18.7296 15.8885 18.6583 15.9705C18.5871 16.0525 18.4974 16.1164 18.3966 16.1571C15.6767 17.2073 11.0507 17.1884 10.9957 17.1884C10.9407 17.1884 6.32328 17.2038 3.60508 16.1571C3.50433 16.1164 3.41466 16.0525 3.3434 15.9705C3.27215 15.8885 3.22135 15.7907 3.19516 15.6853C2.99063 14.9007 2.75 13.4552 2.75 11C2.75 8.54477 2.99062 7.0993 3.19344 6.31898C3.21914 6.21292 3.26973 6.1145 3.34101 6.03186C3.41229 5.94922 3.50222 5.88474 3.60336 5.84375C6.32328 4.79703 10.9484 4.8125 11.0043 4.8125C11.0602 4.8125 15.6767 4.79703 18.3949 5.84375C18.4957 5.88441 18.5853 5.94836 18.6566 6.03037C18.7278 6.11238 18.7787 6.21011 18.8048 6.31555C19.0094 7.0993 19.25 8.54477 19.25 11C19.25 13.4552 19.0094 14.9007 18.8066 15.681V15.6853Z" fill="var(--fill-0, #737373)"/>
</g>
</svg>
