<svg preserveAspectRatio="none" width="100%" height="100%" overflow="visible" style="display: block;" viewBox="0 0 22 22" fill="none" xmlns="http://www.w3.org/2000/svg">
<g id="svg1786778578_1057">
<path id="Vector" opacity="0.2" d="M19.25 13.0625C19.25 13.6095 19.0327 14.1341 18.6459 14.5209C18.2591 14.9077 17.7345 15.125 17.1875 15.125H13.0625C13.6095 15.125 14.1341 15.3423 14.5209 15.7291C14.9077 16.1159 15.125 16.6405 15.125 17.1875C15.125 17.7345 14.9077 18.2591 14.5209 18.6459C14.1341 19.0327 13.6095 19.25 13.0625 19.25C12.5155 19.25 11.9909 19.0327 11.6041 18.6459C11.2173 18.2591 11 17.7345 11 17.1875V15.125H13.0625C12.5155 15.125 11.9909 14.9077 11.6041 14.5209C11.2173 14.1341 11 13.6095 11 13.0625V11H17.1875C17.7345 11 18.2591 11.2173 18.6459 11.6041C19.0327 11.9909 19.25 12.5155 19.25 13.0625ZM8.9375 6.875H11V4.8125C11 4.26549 10.7827 3.74089 10.3959 3.35409C10.0091 2.9673 9.48451 2.75 8.9375 2.75C8.39049 2.75 7.86589 2.9673 7.47909 3.35409C7.0923 3.74089 6.875 4.26549 6.875 4.8125C6.875 5.35951 7.0923 5.88411 7.47909 6.27091C7.86589 6.6577 8.39049 6.875 8.9375 6.875H4.8125C4.26549 6.875 3.74089 7.0923 3.35409 7.47909C2.9673 7.86589 2.75 8.39049 2.75 8.9375C2.75 9.48451 2.9673 10.0091 3.35409 10.3959C3.74089 10.7827 4.26549 11 4.8125 11H11V8.9375C11 8.39049 10.7827 7.86589 10.3959 7.47909C10.0091 7.0923 9.48451 6.875 8.9375 6.875Z" fill="var(--fill-0, #737373)"/>
<path id="Vector_2" d="M19.0034 11C19.5101 10.5478 19.8316 9.92415 19.906 9.24907C19.9803 8.574 19.8022 7.89529 19.406 7.34369C19.0098 6.79209 18.4235 6.40662 17.76 6.26153C17.0965 6.11645 16.4028 6.22201 15.8125 6.55789V4.8125C15.8119 4.25418 15.6413 3.70928 15.3235 3.25023C15.0057 2.79119 14.5557 2.43976 14.0333 2.24266C13.511 2.04555 12.941 2.01212 12.3991 2.1468C11.8573 2.28149 11.3693 2.5779 11 2.99664C10.5478 2.48988 9.92415 2.16836 9.24907 2.09402C8.574 2.01967 7.89529 2.19777 7.34369 2.59399C6.79209 2.99022 6.40662 3.57655 6.26153 4.24003C6.11645 4.90351 6.22201 5.59721 6.55789 6.1875H4.8125C4.25418 6.18813 3.70928 6.35868 3.25023 6.67649C2.79119 6.9943 2.43976 7.4443 2.24266 7.96667C2.04555 8.48905 2.01212 9.05904 2.1468 9.60087C2.28149 10.1427 2.5779 10.6307 2.99664 11C2.48988 11.4522 2.16836 12.0758 2.09402 12.7509C2.01967 13.426 2.19777 14.1047 2.59399 14.6563C2.99022 15.2079 3.57655 15.5934 4.24003 15.7385C4.90351 15.8836 5.59721 15.778 6.1875 15.4421V17.1875C6.18813 17.7458 6.35868 18.2907 6.67649 18.7498C6.9943 19.2088 7.4443 19.5602 7.96667 19.7573C8.48905 19.9544 9.05904 19.9879 9.60087 19.8532C10.1427 19.7185 10.6307 19.4221 11 19.0034C11.4522 19.5101 12.0758 19.8316 12.7509 19.906C13.426 19.9803 14.1047 19.8022 14.6563 19.406C15.2079 19.0098 15.5934 18.4235 15.7385 17.76C15.8836 17.0965 15.778 16.4028 15.4421 15.8125H17.1875C17.7458 15.8119 18.2907 15.6413 18.7498 15.3235C19.2088 15.0057 19.5602 14.5557 19.7573 14.0333C19.9544 13.511 19.9879 12.941 19.8532 12.3991C19.7185 11.8573 19.4221 11.3693 19.0034 11ZM17.1875 7.5625C17.5522 7.5625 17.9019 7.70737 18.1598 7.96523C18.4176 8.22309 18.5625 8.57283 18.5625 8.9375C18.5625 9.30217 18.4176 9.65191 18.1598 9.90977C17.9019 10.1676 17.5522 10.3125 17.1875 10.3125H15.8125V8.9375C15.8125 8.57283 15.9574 8.22309 16.2152 7.96523C16.4731 7.70737 16.8228 7.5625 17.1875 7.5625ZM13.0625 3.4375C13.4272 3.4375 13.7769 3.58237 14.0348 3.84023C14.2926 4.09809 14.4375 4.44783 14.4375 4.8125V8.9375C14.4375 9.30217 14.2926 9.65191 14.0348 9.90977C13.7769 10.1676 13.4272 10.3125 13.0625 10.3125H11.6875V4.8125C11.6875 4.44783 11.8324 4.09809 12.0902 3.84023C12.3481 3.58237 12.6978 3.4375 13.0625 3.4375ZM7.5625 4.8125C7.5625 4.44783 7.70737 4.09809 7.96523 3.84023C8.22309 3.58237 8.57283 3.4375 8.9375 3.4375C9.30217 3.4375 9.65191 3.58237 9.90977 3.84023C10.1676 4.09809 10.3125 4.44783 10.3125 4.8125V6.1875H8.9375C8.57283 6.1875 8.22309 6.04263 7.96523 5.78477C7.70737 5.52691 7.5625 5.17717 7.5625 4.8125ZM3.4375 8.9375C3.4375 8.57283 3.58237 8.22309 3.84023 7.96523C4.09809 7.70737 4.44783 7.5625 4.8125 7.5625H8.9375C9.30217 7.5625 9.65191 7.70737 9.90977 7.96523C10.1676 8.22309 10.3125 8.57283 10.3125 8.9375V10.3125H4.8125C4.44783 10.3125 4.09809 10.1676 3.84023 9.90977C3.58237 9.65191 3.4375 9.30217 3.4375 8.9375ZM4.8125 14.4375C4.44783 14.4375 4.09809 14.2926 3.84023 14.0348C3.58237 13.7769 3.4375 13.4272 3.4375 13.0625C3.4375 12.6978 3.58237 12.3481 3.84023 12.0902C4.09809 11.8324 4.44783 11.6875 4.8125 11.6875H6.1875V13.0625C6.1875 13.4272 6.04263 13.7769 5.78477 14.0348C5.52691 14.2926 5.17717 14.4375 4.8125 14.4375ZM8.9375 18.5625C8.57283 18.5625 8.22309 18.4176 7.96523 18.1598C7.70737 17.9019 7.5625 17.5522 7.5625 17.1875V13.0625C7.5625 12.6978 7.70737 12.3481 7.96523 12.0902C8.22309 11.8324 8.57283 11.6875 8.9375 11.6875H10.3125V17.1875C10.3125 17.5522 10.1676 17.9019 9.90977 18.1598C9.65191 18.4176 9.30217 18.5625 8.9375 18.5625ZM14.4375 17.1875C14.4375 17.5522 14.2926 17.9019 14.0348 18.1598C13.7769 18.4176 13.4272 18.5625 13.0625 18.5625C12.6978 18.5625 12.3481 18.4176 12.0902 18.1598C11.8324 17.9019 11.6875 17.5522 11.6875 17.1875V15.8125H13.0625C13.4272 15.8125 13.7769 15.9574 14.0348 16.2152C14.2926 16.4731 14.4375 16.8228 14.4375 17.1875ZM17.1875 14.4375H13.0625C12.6978 14.4375 12.3481 14.2926 12.0902 14.0348C11.8324 13.7769 11.6875 13.4272 11.6875 13.0625V11.6875H17.1875C17.5522 11.6875 17.9019 11.8324 18.1598 12.0902C18.4176 12.3481 18.5625 12.6978 18.5625 13.0625C18.5625 13.4272 18.4176 13.7769 18.1598 14.0348C17.9019 14.2926 17.5522 14.4375 17.1875 14.4375Z" fill="var(--fill-0, #737373)"/>
</g>
</svg>
